<?xml version="1.0" encoding="UTF-8" standalone="no"?>
<!DOCTYPE svg PUBLIC "-//W3C//DTD SVG 1.1//EN"
 "http://www.w3.org/Graphics/SVG/1.1/DTD/svg11.dtd">
<!-- Generated by graphviz version 2.38.0 (20140413.2041)
 -->
<!-- Title: %3 Pages: 1 -->
<svg width="2769pt" height="620pt"
 viewBox="0.00 0.00 2768.74 620.00" xmlns="http://www.w3.org/2000/svg" xmlns:xlink="http://www.w3.org/1999/xlink">
<g id="graph0" class="graph" transform="scale(1 1) rotate(0) translate(4 616)">
<title>%3</title>
<polygon fill="white" stroke="none" points="-4,4 -4,-616 2764.74,-616 2764.74,4 -4,4"/>
<!-- [root] aws_db_instance.postgresSQL_db (orphan) -->
<g id="node1" class="node"><title>[root] aws_db_instance.postgresSQL_db (orphan)</title>
<polygon fill="none" stroke="black" points="2113.5,-468 1910.5,-468 1910.5,-432 2113.5,-432 2113.5,-468"/>
<text text-anchor="middle" x="2012" y="-446.3" font-family="Times,serif" font-size="14.00">aws_db_instance.postgresSQL_db</text>
</g>
<!-- [root] aws_db_subnet_group.rds_subnet_group (orphan) -->
<g id="node2" class="node"><title>[root] aws_db_subnet_group.rds_subnet_group (orphan)</title>
<polygon fill="none" stroke="black" points="2131.5,-396 1892.5,-396 1892.5,-360 2131.5,-360 2131.5,-396"/>
<text text-anchor="middle" x="2012" y="-374.3" font-family="Times,serif" font-size="14.00">aws_db_subnet_group.rds_subnet_group</text>
</g>
<!-- [root] aws_db_instance.postgresSQL_db (orphan)&#45;&gt;[root] aws_db_subnet_group.rds_subnet_group (orphan) -->
<g id="edge1" class="edge"><title>[root] aws_db_instance.postgresSQL_db (orphan)&#45;&gt;[root] aws_db_subnet_group.rds_subnet_group (orphan)</title>
<path fill="none" stroke="black" d="M2012,-431.697C2012,-423.983 2012,-414.712 2012,-406.112"/>
<polygon fill="black" stroke="black" points="2015.5,-406.104 2012,-396.104 2008.5,-406.104 2015.5,-406.104"/>
</g>
<!-- [root] aws_security_group.rds_sg (orphan) -->
<g id="node22" class="node"><title>[root] aws_security_group.rds_sg (orphan)</title>
<polygon fill="none" stroke="black" points="1777,-252 1613,-252 1613,-216 1777,-216 1777,-252"/>
<text text-anchor="middle" x="1695" y="-230.3" font-family="Times,serif" font-size="14.00">aws_security_group.rds_sg</text>
</g>
<!-- [root] aws_db_instance.postgresSQL_db (orphan)&#45;&gt;[root] aws_security_group.rds_sg (orphan) -->
<g id="edge2" class="edge"><title>[root] aws_db_instance.postgresSQL_db (orphan)&#45;&gt;[root] aws_security_group.rds_sg (orphan)</title>
<path fill="none" stroke="black" d="M1962.59,-431.873C1910.25,-411.959 1827.3,-375.161 1769,-324 1747.26,-304.921 1726.57,-279.157 1712.62,-260.259"/>
<polygon fill="black" stroke="black" points="1715.42,-258.148 1706.71,-252.108 1709.75,-262.258 1715.42,-258.148"/>
</g>
<!-- [root] aws_subnet.private_2_subnet_eu_west_1a (orphan) -->
<g id="node24" class="node"><title>[root] aws_subnet.private_2_subnet_eu_west_1a (orphan)</title>
<polygon fill="none" stroke="black" points="2025.5,-324 1778.5,-324 1778.5,-288 2025.5,-288 2025.5,-324"/>
<text text-anchor="middle" x="1902" y="-302.3" font-family="Times,serif" font-size="14.00">aws_subnet.private_2_subnet_eu_west_1a</text>
</g>
<!-- [root] aws_db_subnet_group.rds_subnet_group (orphan)&#45;&gt;[root] aws_subnet.private_2_subnet_eu_west_1a (orphan) -->
<g id="edge3" class="edge"><title>[root] aws_db_subnet_group.rds_subnet_group (orphan)&#45;&gt;[root] aws_subnet.private_2_subnet_eu_west_1a (orphan)</title>
<path fill="none" stroke="black" d="M1985.09,-359.876C1970.84,-350.808 1953.15,-339.552 1937.76,-329.759"/>
<polygon fill="black" stroke="black" points="1939.33,-326.606 1929.01,-324.19 1935.57,-332.511 1939.33,-326.606"/>
</g>
<!-- [root] aws_subnet.private_3_subnet_eu_west_1b (orphan) -->
<g id="node25" class="node"><title>[root] aws_subnet.private_3_subnet_eu_west_1b (orphan)</title>
<polygon fill="none" stroke="black" points="2167,-252 1919,-252 1919,-216 2167,-216 2167,-252"/>
<text text-anchor="middle" x="2043" y="-230.3" font-family="Times,serif" font-size="14.00">aws_subnet.private_3_subnet_eu_west_1b</text>
</g>
<!-- [root] aws_db_subnet_group.rds_subnet_group (orphan)&#45;&gt;[root] aws_subnet.private_3_subnet_eu_west_1b (orphan) -->
<g id="edge4" class="edge"><title>[root] aws_db_subnet_group.rds_subnet_group (orphan)&#45;&gt;[root] aws_subnet.private_3_subnet_eu_west_1b (orphan)</title>
<path fill="none" stroke="black" d="M2020.66,-359.774C2025.38,-349.615 2030.88,-336.365 2034,-324 2039.12,-303.703 2041.34,-280.107 2042.3,-262.312"/>
<polygon fill="black" stroke="black" points="2045.8,-262.463 2042.74,-252.319 2038.8,-262.156 2045.8,-262.463"/>
</g>
<!-- [root] aws_dynamodb_table.terraform_state_lock -->
<g id="node3" class="node"><title>[root] aws_dynamodb_table.terraform_state_lock</title>
<polygon fill="none" stroke="black" points="2384,-468 2132,-468 2132,-432 2384,-432 2384,-468"/>
<text text-anchor="middle" x="2258" y="-446.3" font-family="Times,serif" font-size="14.00">aws_dynamodb_table.terraform_state_lock</text>
</g>
<!-- [root] provider.aws -->
<g id="node29" class="node"><title>[root] provider.aws</title>
<polygon fill="none" stroke="black" points="2087,-108 2007.07,-90 2087,-72 2166.93,-90 2087,-108"/>
<text text-anchor="middle" x="2087" y="-86.3" font-family="Times,serif" font-size="14.00">provider.aws</text>
</g>
<!-- [root] aws_dynamodb_table.terraform_state_lock&#45;&gt;[root] provider.aws -->
<g id="edge5" class="edge"><title>[root] aws_dynamodb_table.terraform_state_lock&#45;&gt;[root] provider.aws</title>
<path fill="none" stroke="black" d="M2245.28,-431.623C2227.66,-405.806 2198,-355.174 2198,-307 2198,-307 2198,-307 2198,-233 2198,-179.286 2148.09,-133.759 2115.21,-109.592"/>
<polygon fill="black" stroke="black" points="2117.02,-106.587 2106.84,-103.634 2112.96,-112.288 2117.02,-106.587"/>
</g>
<!-- [root] aws_efs_file_system.efs&#45;example (orphan) -->
<g id="node4" class="node"><title>[root] aws_efs_file_system.efs&#45;example (orphan)</title>
<polygon fill="none" stroke="black" points="2077,-180 1877,-180 1877,-144 2077,-144 2077,-180"/>
<text text-anchor="middle" x="1977" y="-158.3" font-family="Times,serif" font-size="14.00">aws_efs_file_system.efs&#45;example</text>
</g>
<!-- [root] aws_efs_file_system.efs&#45;example (orphan)&#45;&gt;[root] provider.aws -->
<g id="edge6" class="edge"><title>[root] aws_efs_file_system.efs&#45;example (orphan)&#45;&gt;[root] provider.aws</title>
<path fill="none" stroke="black" d="M2003.91,-143.876C2020.33,-133.426 2041.32,-120.069 2058.09,-109.395"/>
<polygon fill="black" stroke="black" points="2060.37,-112.098 2066.92,-103.776 2056.61,-106.192 2060.37,-112.098"/>
</g>
<!-- [root] aws_efs_mount_target.efs&#45;mt&#45;example (orphan) -->
<g id="node5" class="node"><title>[root] aws_efs_mount_target.efs&#45;mt&#45;example (orphan)</title>
<polygon fill="none" stroke="black" points="1520,-324 1290,-324 1290,-288 1520,-288 1520,-324"/>
<text text-anchor="middle" x="1405" y="-302.3" font-family="Times,serif" font-size="14.00">aws_efs_mount_target.efs&#45;mt&#45;example</text>
</g>
<!-- [root] aws_efs_mount_target.efs&#45;mt&#45;example (orphan)&#45;&gt;[root] aws_efs_file_system.efs&#45;example (orphan) -->
<g id="edge7" class="edge"><title>[root] aws_efs_mount_target.efs&#45;mt&#45;example (orphan)&#45;&gt;[root] aws_efs_file_system.efs&#45;example (orphan)</title>
<path fill="none" stroke="black" d="M1520.25,-297.937C1596.81,-291.073 1698.89,-277.722 1786,-252 1841.31,-235.668 1900.93,-205.702 1938.57,-185.086"/>
<polygon fill="black" stroke="black" points="1940.6,-187.965 1947.66,-180.06 1937.21,-181.84 1940.6,-187.965"/>
</g>
<!-- [root] aws_security_group.ingress&#45;efs (orphan) -->
<g id="node21" class="node"><title>[root] aws_security_group.ingress&#45;efs (orphan)</title>
<polygon fill="none" stroke="black" points="1317,-252 1129,-252 1129,-216 1317,-216 1317,-252"/>
<text text-anchor="middle" x="1223" y="-230.3" font-family="Times,serif" font-size="14.00">aws_security_group.ingress&#45;efs</text>
</g>
<!-- [root] aws_efs_mount_target.efs&#45;mt&#45;example (orphan)&#45;&gt;[root] aws_security_group.ingress&#45;efs (orphan) -->
<g id="edge8" class="edge"><title>[root] aws_efs_mount_target.efs&#45;mt&#45;example (orphan)&#45;&gt;[root] aws_security_group.ingress&#45;efs (orphan)</title>
<path fill="none" stroke="black" d="M1360.48,-287.876C1335.27,-278.179 1303.55,-265.98 1276.93,-255.743"/>
<polygon fill="black" stroke="black" points="1277.97,-252.391 1267.38,-252.068 1275.45,-258.925 1277.97,-252.391"/>
</g>
<!-- [root] aws_subnet.subnet&#45;efs (orphan) -->
<g id="node27" class="node"><title>[root] aws_subnet.subnet&#45;efs (orphan)</title>
<polygon fill="none" stroke="black" points="1474.5,-252 1335.5,-252 1335.5,-216 1474.5,-216 1474.5,-252"/>
<text text-anchor="middle" x="1405" y="-230.3" font-family="Times,serif" font-size="14.00">aws_subnet.subnet&#45;efs</text>
</g>
<!-- [root] aws_efs_mount_target.efs&#45;mt&#45;example (orphan)&#45;&gt;[root] aws_subnet.subnet&#45;efs (orphan) -->
<g id="edge9" class="edge"><title>[root] aws_efs_mount_target.efs&#45;mt&#45;example (orphan)&#45;&gt;[root] aws_subnet.subnet&#45;efs (orphan)</title>
<path fill="none" stroke="black" d="M1405,-287.697C1405,-279.983 1405,-270.712 1405,-262.112"/>
<polygon fill="black" stroke="black" points="1408.5,-262.104 1405,-252.104 1401.5,-262.104 1408.5,-262.104"/>
</g>
<!-- [root] aws_eip.tuto_eip (orphan) -->
<g id="node6" class="node"><title>[root] aws_eip.tuto_eip (orphan)</title>
<polygon fill="none" stroke="black" points="913.5,-324 804.5,-324 804.5,-288 913.5,-288 913.5,-324"/>
<text text-anchor="middle" x="859" y="-302.3" font-family="Times,serif" font-size="14.00">aws_eip.tuto_eip</text>
</g>
<!-- [root] aws_internet_gateway.gw (orphan) -->
<g id="node10" class="node"><title>[root] aws_internet_gateway.gw (orphan)</title>
<polygon fill="none" stroke="black" points="930,-252 772,-252 772,-216 930,-216 930,-252"/>
<text text-anchor="middle" x="851" y="-230.3" font-family="Times,serif" font-size="14.00">aws_internet_gateway.gw</text>
</g>
<!-- [root] aws_eip.tuto_eip (orphan)&#45;&gt;[root] aws_internet_gateway.gw (orphan) -->
<g id="edge10" class="edge"><title>[root] aws_eip.tuto_eip (orphan)&#45;&gt;[root] aws_internet_gateway.gw (orphan)</title>
<path fill="none" stroke="black" d="M857.022,-287.697C856.141,-279.983 855.081,-270.712 854.099,-262.112"/>
<polygon fill="black" stroke="black" points="857.568,-261.642 852.955,-252.104 850.613,-262.437 857.568,-261.642"/>
</g>
<!-- [root] aws_elb.docker_demo (orphan) -->
<g id="node7" class="node"><title>[root] aws_elb.docker_demo (orphan)</title>
<polygon fill="none" stroke="black" points="667.5,-468 528.5,-468 528.5,-432 667.5,-432 667.5,-468"/>
<text text-anchor="middle" x="598" y="-446.3" font-family="Times,serif" font-size="14.00">aws_elb.docker_demo</text>
</g>
<!-- [root] aws_instance.web (orphan) -->
<g id="node9" class="node"><title>[root] aws_instance.web (orphan)</title>
<polygon fill="none" stroke="black" points="738.5,-396 623.5,-396 623.5,-360 738.5,-360 738.5,-396"/>
<text text-anchor="middle" x="681" y="-374.3" font-family="Times,serif" font-size="14.00">aws_instance.web</text>
</g>
<!-- [root] aws_elb.docker_demo (orphan)&#45;&gt;[root] aws_instance.web (orphan) -->
<g id="edge11" class="edge"><title>[root] aws_elb.docker_demo (orphan)&#45;&gt;[root] aws_instance.web (orphan)</title>
<path fill="none" stroke="black" d="M618.517,-431.697C628.869,-422.965 641.586,-412.24 652.839,-402.75"/>
<polygon fill="black" stroke="black" points="655.331,-405.227 660.719,-396.104 650.818,-399.876 655.331,-405.227"/>
</g>
<!-- [root] aws_security_group.docker_demo_elb (orphan) -->
<g id="node19" class="node"><title>[root] aws_security_group.docker_demo_elb (orphan)</title>
<polygon fill="none" stroke="black" points="750.5,-252 523.5,-252 523.5,-216 750.5,-216 750.5,-252"/>
<text text-anchor="middle" x="637" y="-230.3" font-family="Times,serif" font-size="14.00">aws_security_group.docker_demo_elb</text>
</g>
<!-- [root] aws_elb.docker_demo (orphan)&#45;&gt;[root] aws_security_group.docker_demo_elb (orphan) -->
<g id="edge12" class="edge"><title>[root] aws_elb.docker_demo (orphan)&#45;&gt;[root] aws_security_group.docker_demo_elb (orphan)</title>
<path fill="none" stroke="black" d="M601.047,-431.934C604.251,-414.016 609.449,-385.022 614,-360 620.116,-326.377 627.25,-287.687 631.931,-262.366"/>
<polygon fill="black" stroke="black" points="635.4,-262.856 633.778,-252.387 628.517,-261.583 635.4,-262.856"/>
</g>
<!-- [root] aws_instance.app (orphan) -->
<g id="node8" class="node"><title>[root] aws_instance.app (orphan)</title>
<polygon fill="none" stroke="black" points="112,-468 0,-468 0,-432 112,-432 112,-468"/>
<text text-anchor="middle" x="56" y="-446.3" font-family="Times,serif" font-size="14.00">aws_instance.app</text>
</g>
<!-- [root] aws_security_group.ec2_sg (orphan) -->
<g id="node20" class="node"><title>[root] aws_security_group.ec2_sg (orphan)</title>
<polygon fill="none" stroke="black" points="567.5,-324 400.5,-324 400.5,-288 567.5,-288 567.5,-324"/>
<text text-anchor="middle" x="484" y="-302.3" font-family="Times,serif" font-size="14.00">aws_security_group.ec2_sg</text>
</g>
<!-- [root] aws_instance.app (orphan)&#45;&gt;[root] aws_security_group.ec2_sg (orphan) -->
<g id="edge13" class="edge"><title>[root] aws_instance.app (orphan)&#45;&gt;[root] aws_security_group.ec2_sg (orphan)</title>
<path fill="none" stroke="black" d="M75.3337,-431.944C99.6331,-411.484 143.454,-377.731 187,-360 252.002,-333.533 330.328,-320.252 390.22,-313.605"/>
<polygon fill="black" stroke="black" points="390.851,-317.058 400.423,-312.517 390.109,-310.097 390.851,-317.058"/>
</g>
<!-- [root] aws_subnet.private_1_subnet_eu_west_1a (orphan) -->
<g id="node23" class="node"><title>[root] aws_subnet.private_1_subnet_eu_west_1a (orphan)</title>
<polygon fill="none" stroke="black" points="443.5,-396 196.5,-396 196.5,-360 443.5,-360 443.5,-396"/>
<text text-anchor="middle" x="320" y="-374.3" font-family="Times,serif" font-size="14.00">aws_subnet.private_1_subnet_eu_west_1a</text>
</g>
<!-- [root] aws_instance.app (orphan)&#45;&gt;[root] aws_subnet.private_1_subnet_eu_west_1a (orphan) -->
<g id="edge14" class="edge"><title>[root] aws_instance.app (orphan)&#45;&gt;[root] aws_subnet.private_1_subnet_eu_west_1a (orphan)</title>
<path fill="none" stroke="black" d="M112.311,-434.069C151.227,-423.751 203.399,-409.917 245.716,-398.696"/>
<polygon fill="black" stroke="black" points="246.646,-402.071 255.415,-396.125 244.852,-395.305 246.646,-402.071"/>
</g>
<!-- [root] aws_instance.web (orphan)&#45;&gt;[root] aws_security_group.ec2_sg (orphan) -->
<g id="edge15" class="edge"><title>[root] aws_instance.web (orphan)&#45;&gt;[root] aws_security_group.ec2_sg (orphan)</title>
<path fill="none" stroke="black" d="M633.06,-359.966C605.535,-350.185 570.783,-337.836 541.759,-327.524"/>
<polygon fill="black" stroke="black" points="542.749,-324.161 532.155,-324.111 540.406,-330.757 542.749,-324.161"/>
</g>
<!-- [root] aws_subnet.public_subnet_eu_west_1a (orphan) -->
<g id="node26" class="node"><title>[root] aws_subnet.public_subnet_eu_west_1a (orphan)</title>
<polygon fill="none" stroke="black" points="1216,-324 986,-324 986,-288 1216,-288 1216,-324"/>
<text text-anchor="middle" x="1101" y="-302.3" font-family="Times,serif" font-size="14.00">aws_subnet.public_subnet_eu_west_1a</text>
</g>
<!-- [root] aws_instance.web (orphan)&#45;&gt;[root] aws_subnet.public_subnet_eu_west_1a (orphan) -->
<g id="edge16" class="edge"><title>[root] aws_instance.web (orphan)&#45;&gt;[root] aws_subnet.public_subnet_eu_west_1a (orphan)</title>
<path fill="none" stroke="black" d="M738.519,-367.414C802.614,-356.731 907.828,-339.195 988.435,-325.761"/>
<polygon fill="black" stroke="black" points="989.349,-329.157 998.637,-324.06 988.198,-322.252 989.349,-329.157"/>
</g>
<!-- [root] aws_vpc.vpc_tuto (orphan) -->
<g id="node28" class="node"><title>[root] aws_vpc.vpc_tuto (orphan)</title>
<polygon fill="none" stroke="black" points="1219.5,-180 1104.5,-180 1104.5,-144 1219.5,-144 1219.5,-180"/>
<text text-anchor="middle" x="1162" y="-158.3" font-family="Times,serif" font-size="14.00">aws_vpc.vpc_tuto</text>
</g>
<!-- [root] aws_internet_gateway.gw (orphan)&#45;&gt;[root] aws_vpc.vpc_tuto (orphan) -->
<g id="edge17" class="edge"><title>[root] aws_internet_gateway.gw (orphan)&#45;&gt;[root] aws_vpc.vpc_tuto (orphan)</title>
<path fill="none" stroke="black" d="M926.681,-215.966C977.817,-204.456 1044.75,-189.39 1094.16,-178.27"/>
<polygon fill="black" stroke="black" points="1095.12,-181.641 1104.11,-176.031 1093.58,-174.812 1095.12,-181.641"/>
</g>
<!-- [root] aws_nat_gateway.nat (orphan) -->
<g id="node11" class="node"><title>[root] aws_nat_gateway.nat (orphan)</title>
<polygon fill="none" stroke="black" points="1160.5,-396 1027.5,-396 1027.5,-360 1160.5,-360 1160.5,-396"/>
<text text-anchor="middle" x="1094" y="-374.3" font-family="Times,serif" font-size="14.00">aws_nat_gateway.nat</text>
</g>
<!-- [root] aws_nat_gateway.nat (orphan)&#45;&gt;[root] aws_eip.tuto_eip (orphan) -->
<g id="edge18" class="edge"><title>[root] aws_nat_gateway.nat (orphan)&#45;&gt;[root] aws_eip.tuto_eip (orphan)</title>
<path fill="none" stroke="black" d="M1036.81,-359.966C1002.54,-349.756 958.869,-336.748 923.385,-326.179"/>
<polygon fill="black" stroke="black" points="924.191,-322.767 913.608,-323.266 922.193,-329.476 924.191,-322.767"/>
</g>
<!-- [root] aws_nat_gateway.nat (orphan)&#45;&gt;[root] aws_subnet.public_subnet_eu_west_1a (orphan) -->
<g id="edge19" class="edge"><title>[root] aws_nat_gateway.nat (orphan)&#45;&gt;[root] aws_subnet.public_subnet_eu_west_1a (orphan)</title>
<path fill="none" stroke="black" d="M1095.73,-359.697C1096.5,-351.983 1097.43,-342.712 1098.29,-334.112"/>
<polygon fill="black" stroke="black" points="1101.78,-334.403 1099.29,-324.104 1094.81,-333.706 1101.78,-334.403"/>
</g>
<!-- [root] aws_route.internet_access (orphan) -->
<g id="node12" class="node"><title>[root] aws_route.internet_access (orphan)</title>
<polygon fill="none" stroke="black" points="844,-468 686,-468 686,-432 844,-432 844,-468"/>
<text text-anchor="middle" x="765" y="-446.3" font-family="Times,serif" font-size="14.00">aws_route.internet_access</text>
</g>
<!-- [root] aws_route.internet_access (orphan)&#45;&gt;[root] aws_internet_gateway.gw (orphan) -->
<g id="edge20" class="edge"><title>[root] aws_route.internet_access (orphan)&#45;&gt;[root] aws_internet_gateway.gw (orphan)</title>
<path fill="none" stroke="black" d="M764.803,-431.875C765.155,-401.15 769.168,-335.446 795,-288 801.001,-276.978 810.117,-266.921 819.261,-258.6"/>
<polygon fill="black" stroke="black" points="821.589,-261.215 826.882,-252.036 817.021,-255.911 821.589,-261.215"/>
</g>
<!-- [root] aws_route.private_route (orphan) -->
<g id="node13" class="node"><title>[root] aws_route.private_route (orphan)</title>
<polygon fill="none" stroke="black" points="1010,-468 862,-468 862,-432 1010,-432 1010,-468"/>
<text text-anchor="middle" x="936" y="-446.3" font-family="Times,serif" font-size="14.00">aws_route.private_route</text>
</g>
<!-- [root] aws_route.private_route (orphan)&#45;&gt;[root] aws_nat_gateway.nat (orphan) -->
<g id="edge21" class="edge"><title>[root] aws_route.private_route (orphan)&#45;&gt;[root] aws_nat_gateway.nat (orphan)</title>
<path fill="none" stroke="black" d="M974.651,-431.876C996.251,-422.307 1023.35,-410.3 1046.27,-400.148"/>
<polygon fill="black" stroke="black" points="1047.75,-403.319 1055.47,-396.068 1044.91,-396.919 1047.75,-403.319"/>
</g>
<!-- [root] aws_route_table.private_route_table (orphan) -->
<g id="node14" class="node"><title>[root] aws_route_table.private_route_table (orphan)</title>
<polygon fill="none" stroke="black" points="1009,-396 795,-396 795,-360 1009,-360 1009,-396"/>
<text text-anchor="middle" x="902" y="-374.3" font-family="Times,serif" font-size="14.00">aws_route_table.private_route_table</text>
</g>
<!-- [root] aws_route.private_route (orphan)&#45;&gt;[root] aws_route_table.private_route_table (orphan) -->
<g id="edge22" class="edge"><title>[root] aws_route.private_route (orphan)&#45;&gt;[root] aws_route_table.private_route_table (orphan)</title>
<path fill="none" stroke="black" d="M927.596,-431.697C923.725,-423.728 919.048,-414.1 914.757,-405.264"/>
<polygon fill="black" stroke="black" points="917.825,-403.57 910.308,-396.104 911.529,-406.629 917.825,-403.57"/>
</g>
<!-- [root] aws_route_table.private_route_table (orphan)&#45;&gt;[root] aws_vpc.vpc_tuto (orphan) -->
<g id="edge23" class="edge"><title>[root] aws_route_table.private_route_table (orphan)&#45;&gt;[root] aws_vpc.vpc_tuto (orphan)</title>
<path fill="none" stroke="black" d="M914.295,-359.708C928.219,-340.821 952.209,-310.293 977,-288 1022.9,-246.729 1083.27,-208.438 1122.36,-185.387"/>
<polygon fill="black" stroke="black" points="1124.46,-188.212 1131.33,-180.144 1120.93,-182.168 1124.46,-188.212"/>
</g>
<!-- [root] aws_route_table_association.pr_1_subnet_eu_west_1a_association (orphan) -->
<g id="node15" class="node"><title>[root] aws_route_table_association.pr_1_subnet_eu_west_1a_association (orphan)</title>
<polygon fill="none" stroke="black" points="510,-468 130,-468 130,-432 510,-432 510,-468"/>
<text text-anchor="middle" x="320" y="-446.3" font-family="Times,serif" font-size="14.00">aws_route_table_association.pr_1_subnet_eu_west_1a_association</text>
</g>
<!-- [root] aws_route_table_association.pr_1_subnet_eu_west_1a_association (orphan)&#45;&gt;[root] aws_route_table.private_route_table (orphan) -->
<g id="edge24" class="edge"><title>[root] aws_route_table_association.pr_1_subnet_eu_west_1a_association (orphan)&#45;&gt;[root] aws_route_table.private_route_table (orphan)</title>
<path fill="none" stroke="black" d="M461.629,-431.966C560.645,-420.056 691.316,-404.34 784.545,-393.127"/>
<polygon fill="black" stroke="black" points="785.073,-396.589 794.583,-391.92 784.237,-389.639 785.073,-396.589"/>
</g>
<!-- [root] aws_route_table_association.pr_1_subnet_eu_west_1a_association (orphan)&#45;&gt;[root] aws_subnet.private_1_subnet_eu_west_1a (orphan) -->
<g id="edge25" class="edge"><title>[root] aws_route_table_association.pr_1_subnet_eu_west_1a_association (orphan)&#45;&gt;[root] aws_subnet.private_1_subnet_eu_west_1a (orphan)</title>
<path fill="none" stroke="black" d="M320,-431.697C320,-423.983 320,-414.712 320,-406.112"/>
<polygon fill="black" stroke="black" points="323.5,-406.104 320,-396.104 316.5,-406.104 323.5,-406.104"/>
</g>
<!-- [root] aws_route_table_association.pr_2_subnet_eu_west_1a_association (orphan) -->
<g id="node16" class="node"><title>[root] aws_route_table_association.pr_2_subnet_eu_west_1a_association (orphan)</title>
<polygon fill="none" stroke="black" points="1446,-468 1066,-468 1066,-432 1446,-432 1446,-468"/>
<text text-anchor="middle" x="1256" y="-446.3" font-family="Times,serif" font-size="14.00">aws_route_table_association.pr_2_subnet_eu_west_1a_association</text>
</g>
<!-- [root] aws_route_table_association.pr_2_subnet_eu_west_1a_association (orphan)&#45;&gt;[root] aws_route_table.private_route_table (orphan) -->
<g id="edge26" class="edge"><title>[root] aws_route_table_association.pr_2_subnet_eu_west_1a_association (orphan)&#45;&gt;[root] aws_route_table.private_route_table (orphan)</title>
<path fill="none" stroke="black" d="M1169.85,-431.966C1117.93,-421.698 1051.7,-408.601 998.082,-397.999"/>
<polygon fill="black" stroke="black" points="998.714,-394.556 988.225,-396.05 997.356,-401.423 998.714,-394.556"/>
</g>
<!-- [root] aws_route_table_association.pr_2_subnet_eu_west_1a_association (orphan)&#45;&gt;[root] aws_subnet.private_2_subnet_eu_west_1a (orphan) -->
<g id="edge27" class="edge"><title>[root] aws_route_table_association.pr_2_subnet_eu_west_1a_association (orphan)&#45;&gt;[root] aws_subnet.private_2_subnet_eu_west_1a (orphan)</title>
<path fill="none" stroke="black" d="M1333.6,-431.942C1454.61,-405.342 1687.52,-354.145 1814.4,-326.256"/>
<polygon fill="black" stroke="black" points="1815.45,-329.608 1824.47,-324.043 1813.95,-322.771 1815.45,-329.608"/>
</g>
<!-- [root] aws_route_table_association.public_subnet_eu_west_1a_association (orphan) -->
<g id="node17" class="node"><title>[root] aws_route_table_association.public_subnet_eu_west_1a_association (orphan)</title>
<polygon fill="none" stroke="black" points="1853.5,-468 1464.5,-468 1464.5,-432 1853.5,-432 1853.5,-468"/>
<text text-anchor="middle" x="1659" y="-446.3" font-family="Times,serif" font-size="14.00">aws_route_table_association.public_subnet_eu_west_1a_association</text>
</g>
<!-- [root] aws_route_table_association.public_subnet_eu_west_1a_association (orphan)&#45;&gt;[root] aws_subnet.public_subnet_eu_west_1a (orphan) -->
<g id="edge28" class="edge"><title>[root] aws_route_table_association.public_subnet_eu_west_1a_association (orphan)&#45;&gt;[root] aws_subnet.public_subnet_eu_west_1a (orphan)</title>
<path fill="none" stroke="black" d="M1591.97,-431.942C1487.83,-405.44 1287.74,-354.522 1177.88,-326.565"/>
<polygon fill="black" stroke="black" points="1178.74,-323.172 1168.19,-324.098 1177.02,-329.956 1178.74,-323.172"/>
</g>
<!-- [root] aws_s3_bucket.bucket -->
<g id="node18" class="node"><title>[root] aws_s3_bucket.bucket</title>
<polygon fill="none" stroke="black" points="2541.5,-468 2402.5,-468 2402.5,-432 2541.5,-432 2541.5,-468"/>
<text text-anchor="middle" x="2472" y="-446.3" font-family="Times,serif" font-size="14.00">aws_s3_bucket.bucket</text>
</g>
<!-- [root] aws_s3_bucket.bucket&#45;&gt;[root] provider.aws -->
<g id="edge29" class="edge"><title>[root] aws_s3_bucket.bucket&#45;&gt;[root] provider.aws</title>
<path fill="none" stroke="black" d="M2449.54,-431.975C2420.33,-407.712 2373,-360.193 2373,-307 2373,-307 2373,-307 2373,-233 2373,-136.713 2241.35,-105.716 2156.69,-95.7375"/>
<polygon fill="black" stroke="black" points="2156.93,-92.2433 2146.61,-94.6218 2156.16,-99.2009 2156.93,-92.2433"/>
</g>
<!-- [root] aws_security_group.docker_demo_elb (orphan)&#45;&gt;[root] aws_vpc.vpc_tuto (orphan) -->
<g id="edge30" class="edge"><title>[root] aws_security_group.docker_demo_elb (orphan)&#45;&gt;[root] aws_vpc.vpc_tuto (orphan)</title>
<path fill="none" stroke="black" d="M750.67,-217.653C754.832,-217.094 758.953,-216.542 763,-216 879.165,-200.448 1014.38,-182.525 1093.82,-172.013"/>
<polygon fill="black" stroke="black" points="1094.72,-175.424 1104.18,-170.643 1093.81,-168.485 1094.72,-175.424"/>
</g>
<!-- [root] aws_security_group.ec2_sg (orphan)&#45;&gt;[root] aws_vpc.vpc_tuto (orphan) -->
<g id="edge31" class="edge"><title>[root] aws_security_group.ec2_sg (orphan)&#45;&gt;[root] aws_vpc.vpc_tuto (orphan)</title>
<path fill="none" stroke="black" d="M484.461,-287.761C486.029,-267.116 492.035,-233.175 514,-216 558.972,-180.834 937.554,-168.149 1094.38,-164.375"/>
<polygon fill="black" stroke="black" points="1094.47,-167.874 1104.38,-164.14 1094.3,-160.876 1094.47,-167.874"/>
</g>
<!-- [root] aws_security_group.ingress&#45;efs (orphan)&#45;&gt;[root] aws_vpc.vpc_tuto (orphan) -->
<g id="edge32" class="edge"><title>[root] aws_security_group.ingress&#45;efs (orphan)&#45;&gt;[root] aws_vpc.vpc_tuto (orphan)</title>
<path fill="none" stroke="black" d="M1207.92,-215.697C1200.61,-207.305 1191.69,-197.07 1183.66,-187.861"/>
<polygon fill="black" stroke="black" points="1186.11,-185.344 1176.91,-180.104 1180.84,-189.943 1186.11,-185.344"/>
</g>
<!-- [root] aws_security_group.rds_sg (orphan)&#45;&gt;[root] aws_vpc.vpc_tuto (orphan) -->
<g id="edge33" class="edge"><title>[root] aws_security_group.rds_sg (orphan)&#45;&gt;[root] aws_vpc.vpc_tuto (orphan)</title>
<path fill="none" stroke="black" d="M1612.89,-222.216C1507.69,-208.4 1327.31,-184.71 1229.62,-171.881"/>
<polygon fill="black" stroke="black" points="1229.94,-168.393 1219.57,-170.561 1229.03,-175.333 1229.94,-168.393"/>
</g>
<!-- [root] aws_subnet.private_1_subnet_eu_west_1a (orphan)&#45;&gt;[root] aws_vpc.vpc_tuto (orphan) -->
<g id="edge34" class="edge"><title>[root] aws_subnet.private_1_subnet_eu_west_1a (orphan)&#45;&gt;[root] aws_vpc.vpc_tuto (orphan)</title>
<path fill="none" stroke="black" d="M330.782,-359.736C354.163,-324.212 413.476,-243.924 488,-216 597.618,-174.927 945.588,-165.683 1093.94,-163.603"/>
<polygon fill="black" stroke="black" points="1094.32,-167.099 1104.27,-163.466 1094.22,-160.099 1094.32,-167.099"/>
</g>
<!-- [root] aws_subnet.private_2_subnet_eu_west_1a (orphan)&#45;&gt;[root] aws_vpc.vpc_tuto (orphan) -->
<g id="edge35" class="edge"><title>[root] aws_subnet.private_2_subnet_eu_west_1a (orphan)&#45;&gt;[root] aws_vpc.vpc_tuto (orphan)</title>
<path fill="none" stroke="black" d="M1885.88,-287.636C1865.08,-266.526 1826.71,-231.771 1786,-216 1686.1,-177.301 1370.23,-166.776 1230.1,-163.981"/>
<polygon fill="black" stroke="black" points="1229.98,-160.478 1219.91,-163.785 1229.84,-167.476 1229.98,-160.478"/>
</g>
<!-- [root] aws_subnet.private_3_subnet_eu_west_1b (orphan)&#45;&gt;[root] aws_vpc.vpc_tuto (orphan) -->
<g id="edge36" class="edge"><title>[root] aws_subnet.private_3_subnet_eu_west_1b (orphan)&#45;&gt;[root] aws_vpc.vpc_tuto (orphan)</title>
<path fill="none" stroke="black" d="M1918.75,-222.111C1894.62,-220.044 1869.52,-217.926 1846,-216 1620.27,-197.515 1352.49,-177.249 1229.68,-168.047"/>
<polygon fill="black" stroke="black" points="1229.9,-164.554 1219.66,-167.297 1229.38,-171.534 1229.9,-164.554"/>
</g>
<!-- [root] aws_subnet.public_subnet_eu_west_1a (orphan)&#45;&gt;[root] aws_vpc.vpc_tuto (orphan) -->
<g id="edge37" class="edge"><title>[root] aws_subnet.public_subnet_eu_west_1a (orphan)&#45;&gt;[root] aws_vpc.vpc_tuto (orphan)</title>
<path fill="none" stroke="black" d="M1102.32,-287.861C1104.27,-269.374 1108.96,-239.441 1120,-216 1124.65,-206.123 1131.47,-196.427 1138.26,-188.085"/>
<polygon fill="black" stroke="black" points="1141.13,-190.114 1144.96,-180.237 1135.81,-185.567 1141.13,-190.114"/>
</g>
<!-- [root] aws_subnet.subnet&#45;efs (orphan)&#45;&gt;[root] aws_vpc.vpc_tuto (orphan) -->
<g id="edge38" class="edge"><title>[root] aws_subnet.subnet&#45;efs (orphan)&#45;&gt;[root] aws_vpc.vpc_tuto (orphan)</title>
<path fill="none" stroke="black" d="M1345.87,-215.966C1310.81,-205.867 1266.25,-193.031 1229.78,-182.524"/>
<polygon fill="black" stroke="black" points="1230.3,-179.032 1219.72,-179.627 1228.36,-185.758 1230.3,-179.032"/>
</g>
<!-- [root] aws_vpc.vpc_tuto (orphan)&#45;&gt;[root] provider.aws -->
<g id="edge39" class="edge"><title>[root] aws_vpc.vpc_tuto (orphan)&#45;&gt;[root] provider.aws</title>
<path fill="none" stroke="black" d="M1219.51,-156.648C1382.44,-144.318 1846.5,-109.2 2020.25,-96.0517"/>
<polygon fill="black" stroke="black" points="2020.57,-99.5372 2030.28,-95.2924 2020.04,-92.5571 2020.57,-99.5372"/>
</g>
<!-- [root] var.aws_region -->
<g id="node33" class="node"><title>[root] var.aws_region</title>
<ellipse fill="none" stroke="black" cx="2087" cy="-18" rx="87.1846" ry="18"/>
<text text-anchor="middle" x="2087" y="-14.3" font-family="Times,serif" font-size="14.00">[root] var.aws_region</text>
</g>
<!-- [root] provider.aws&#45;&gt;[root] var.aws_region -->
<g id="edge63" class="edge"><title>[root] provider.aws&#45;&gt;[root] var.aws_region</title>
<path fill="none" stroke="black" d="M2087,-71.6966C2087,-63.9827 2087,-54.7125 2087,-46.1124"/>
<polygon fill="black" stroke="black" points="2090.5,-46.1043 2087,-36.1043 2083.5,-46.1044 2090.5,-46.1043"/>
</g>
<!-- [root] meta.count&#45;boundary (count boundary fixup) -->
<g id="node30" class="node"><title>[root] meta.count&#45;boundary (count boundary fixup)</title>
<ellipse fill="none" stroke="black" cx="1354" cy="-522" rx="193.066" ry="18"/>
<text text-anchor="middle" x="1354" y="-518.3" font-family="Times,serif" font-size="14.00">[root] meta.count&#45;boundary (count boundary fixup)</text>
</g>
<!-- [root] meta.count&#45;boundary (count boundary fixup)&#45;&gt;[root] aws_db_instance.postgresSQL_db (orphan) -->
<g id="edge40" class="edge"><title>[root] meta.count&#45;boundary (count boundary fixup)&#45;&gt;[root] aws_db_instance.postgresSQL_db (orphan)</title>
<path fill="none" stroke="black" d="M1491.76,-509.369C1601.42,-499.667 1758.75,-484.758 1896,-468 1897.31,-467.84 1898.62,-467.678 1899.94,-467.513"/>
<polygon fill="black" stroke="black" points="1900.71,-470.943 1910.19,-466.203 1899.83,-464 1900.71,-470.943"/>
</g>
<!-- [root] meta.count&#45;boundary (count boundary fixup)&#45;&gt;[root] aws_dynamodb_table.terraform_state_lock -->
<g id="edge41" class="edge"><title>[root] meta.count&#45;boundary (count boundary fixup)&#45;&gt;[root] aws_dynamodb_table.terraform_state_lock</title>
<path fill="none" stroke="black" d="M1517.15,-512.371C1670.33,-503.657 1906.14,-488.673 2121.46,-468.017"/>
<polygon fill="black" stroke="black" points="2122.08,-471.473 2131.7,-467.029 2121.41,-464.506 2122.08,-471.473"/>
</g>
<!-- [root] meta.count&#45;boundary (count boundary fixup)&#45;&gt;[root] aws_efs_mount_target.efs&#45;mt&#45;example (orphan) -->
<g id="edge42" class="edge"><title>[root] meta.count&#45;boundary (count boundary fixup)&#45;&gt;[root] aws_efs_mount_target.efs&#45;mt&#45;example (orphan)</title>
<path fill="none" stroke="black" d="M1527.94,-514.17C1666.02,-506.908 1839.54,-492.929 1862,-468 1872.71,-456.114 1871.71,-444.719 1862,-432 1850.39,-416.785 1614.03,-357.604 1485.91,-326.441"/>
<polygon fill="black" stroke="black" points="1486.66,-323.023 1476.12,-324.064 1485.01,-329.826 1486.66,-323.023"/>
</g>
<!-- [root] meta.count&#45;boundary (count boundary fixup)&#45;&gt;[root] aws_elb.docker_demo (orphan) -->
<g id="edge43" class="edge"><title>[root] meta.count&#45;boundary (count boundary fixup)&#45;&gt;[root] aws_elb.docker_demo (orphan)</title>
<path fill="none" stroke="black" d="M1216.83,-509.301C1195.14,-507.496 1172.96,-505.676 1152,-504 944.255,-487.386 888.27,-497.997 677.832,-467.996"/>
<polygon fill="black" stroke="black" points="678.09,-464.497 667.694,-466.536 677.093,-471.426 678.09,-464.497"/>
</g>
<!-- [root] meta.count&#45;boundary (count boundary fixup)&#45;&gt;[root] aws_instance.app (orphan) -->
<g id="edge44" class="edge"><title>[root] meta.count&#45;boundary (count boundary fixup)&#45;&gt;[root] aws_instance.app (orphan)</title>
<path fill="none" stroke="black" d="M1221.23,-508.892C1198.16,-507.056 1174.4,-505.333 1152,-504 697.66,-476.966 576.437,-533.572 122.32,-467.985"/>
<polygon fill="black" stroke="black" points="122.614,-464.491 112.214,-466.514 121.605,-471.418 122.614,-464.491"/>
</g>
<!-- [root] meta.count&#45;boundary (count boundary fixup)&#45;&gt;[root] aws_route.internet_access (orphan) -->
<g id="edge45" class="edge"><title>[root] meta.count&#45;boundary (count boundary fixup)&#45;&gt;[root] aws_route.internet_access (orphan)</title>
<path fill="none" stroke="black" d="M1214.84,-509.492C1116.63,-500.61 981.808,-486.886 854.068,-468.09"/>
<polygon fill="black" stroke="black" points="854.505,-464.617 844.099,-466.611 853.477,-471.541 854.505,-464.617"/>
</g>
<!-- [root] meta.count&#45;boundary (count boundary fixup)&#45;&gt;[root] aws_route.private_route (orphan) -->
<g id="edge46" class="edge"><title>[root] meta.count&#45;boundary (count boundary fixup)&#45;&gt;[root] aws_route.private_route (orphan)</title>
<path fill="none" stroke="black" d="M1264.58,-506.026C1192.35,-493.93 1091.4,-477.023 1020.51,-465.152"/>
<polygon fill="black" stroke="black" points="1020.71,-461.638 1010.27,-463.438 1019.56,-468.542 1020.71,-461.638"/>
</g>
<!-- [root] meta.count&#45;boundary (count boundary fixup)&#45;&gt;[root] aws_route_table_association.pr_1_subnet_eu_west_1a_association (orphan) -->
<g id="edge47" class="edge"><title>[root] meta.count&#45;boundary (count boundary fixup)&#45;&gt;[root] aws_route_table_association.pr_1_subnet_eu_west_1a_association (orphan)</title>
<path fill="none" stroke="black" d="M1219.03,-509.13C1196.65,-507.309 1173.68,-505.528 1152,-504 874.204,-484.415 801.767,-487.908 520.217,-468.074"/>
<polygon fill="black" stroke="black" points="520.335,-464.574 510.113,-467.359 519.84,-471.556 520.335,-464.574"/>
</g>
<!-- [root] meta.count&#45;boundary (count boundary fixup)&#45;&gt;[root] aws_route_table_association.pr_2_subnet_eu_west_1a_association (orphan) -->
<g id="edge48" class="edge"><title>[root] meta.count&#45;boundary (count boundary fixup)&#45;&gt;[root] aws_route_table_association.pr_2_subnet_eu_west_1a_association (orphan)</title>
<path fill="none" stroke="black" d="M1330.28,-504.055C1317.61,-495.008 1301.84,-483.744 1288.1,-473.926"/>
<polygon fill="black" stroke="black" points="1290.02,-470.996 1279.84,-468.032 1285.95,-476.692 1290.02,-470.996"/>
</g>
<!-- [root] meta.count&#45;boundary (count boundary fixup)&#45;&gt;[root] aws_route_table_association.public_subnet_eu_west_1a_association (orphan) -->
<g id="edge49" class="edge"><title>[root] meta.count&#45;boundary (count boundary fixup)&#45;&gt;[root] aws_route_table_association.public_subnet_eu_west_1a_association (orphan)</title>
<path fill="none" stroke="black" d="M1423.21,-505.116C1468.17,-494.797 1527.06,-481.281 1574.74,-470.338"/>
<polygon fill="black" stroke="black" points="1575.77,-473.693 1584.74,-468.044 1574.21,-466.87 1575.77,-473.693"/>
</g>
<!-- [root] meta.count&#45;boundary (count boundary fixup)&#45;&gt;[root] aws_s3_bucket.bucket -->
<g id="edge50" class="edge"><title>[root] meta.count&#45;boundary (count boundary fixup)&#45;&gt;[root] aws_s3_bucket.bucket</title>
<path fill="none" stroke="black" d="M1546.34,-520.429C1753.18,-517.69 2091.64,-507.071 2392.1,-467.974"/>
<polygon fill="black" stroke="black" points="2392.86,-471.404 2402.32,-466.631 2391.95,-464.464 2392.86,-471.404"/>
</g>
<!-- [root] output.url (orphan) -->
<g id="node31" class="node"><title>[root] output.url (orphan)</title>
<ellipse fill="none" stroke="black" cx="2660" cy="-450" rx="100.983" ry="18"/>
<text text-anchor="middle" x="2660" y="-446.3" font-family="Times,serif" font-size="14.00">[root] output.url (orphan)</text>
</g>
<!-- [root] meta.count&#45;boundary (count boundary fixup)&#45;&gt;[root] output.url (orphan) -->
<g id="edge51" class="edge"><title>[root] meta.count&#45;boundary (count boundary fixup)&#45;&gt;[root] output.url (orphan)</title>
<path fill="none" stroke="black" d="M1544.68,-519.044C1781.27,-515.125 2196.79,-503.354 2551,-468 2560.48,-467.054 2570.38,-465.834 2580.2,-464.483"/>
<polygon fill="black" stroke="black" points="2580.96,-467.909 2590.37,-463.032 2579.98,-460.979 2580.96,-467.909"/>
</g>
<!-- [root] provider.aws (close) -->
<g id="node32" class="node"><title>[root] provider.aws (close)</title>
<ellipse fill="none" stroke="black" cx="1038" cy="-522" rx="105.082" ry="18"/>
<text text-anchor="middle" x="1038" y="-518.3" font-family="Times,serif" font-size="14.00">[root] provider.aws (close)</text>
</g>
<!-- [root] provider.aws (close)&#45;&gt;[root] aws_db_instance.postgresSQL_db (orphan) -->
<g id="edge52" class="edge"><title>[root] provider.aws (close)&#45;&gt;[root] aws_db_instance.postgresSQL_db (orphan)</title>
<path fill="none" stroke="black" d="M1111.15,-509.015C1124.7,-507.101 1138.76,-505.32 1152,-504 1466.4,-472.662 1547.09,-493.803 1862,-468 1874.37,-466.987 1887.29,-465.767 1900.14,-464.451"/>
<polygon fill="black" stroke="black" points="1900.84,-467.898 1910.42,-463.378 1900.11,-460.936 1900.84,-467.898"/>
</g>
<!-- [root] provider.aws (close)&#45;&gt;[root] aws_dynamodb_table.terraform_state_lock -->
<g id="edge53" class="edge"><title>[root] provider.aws (close)&#45;&gt;[root] aws_dynamodb_table.terraform_state_lock</title>
<path fill="none" stroke="black" d="M1110.83,-508.91C1124.48,-506.994 1138.65,-505.239 1152,-504 1578.21,-464.436 1690.25,-502.189 2121.47,-467.987"/>
<polygon fill="black" stroke="black" points="2122.03,-471.454 2131.71,-467.166 2121.47,-464.476 2122.03,-471.454"/>
</g>
<!-- [root] provider.aws (close)&#45;&gt;[root] aws_efs_mount_target.efs&#45;mt&#45;example (orphan) -->
<g id="edge54" class="edge"><title>[root] provider.aws (close)&#45;&gt;[root] aws_efs_mount_target.efs&#45;mt&#45;example (orphan)</title>
<path fill="none" stroke="black" d="M1036.88,-503.66C1036.58,-483.866 1039.2,-451.69 1057,-432 1092.06,-393.215 1119.63,-413.23 1169,-396 1232.43,-373.86 1304.6,-346.29 1352.25,-327.751"/>
<polygon fill="black" stroke="black" points="1353.69,-330.945 1361.74,-324.052 1351.15,-324.423 1353.69,-330.945"/>
</g>
<!-- [root] provider.aws (close)&#45;&gt;[root] aws_elb.docker_demo (orphan) -->
<g id="edge55" class="edge"><title>[root] provider.aws (close)&#45;&gt;[root] aws_elb.docker_demo (orphan)</title>
<path fill="none" stroke="black" d="M956.384,-510.587C885.415,-501.171 779.613,-486.27 677.885,-468.095"/>
<polygon fill="black" stroke="black" points="678.199,-464.595 667.737,-466.269 676.959,-471.485 678.199,-464.595"/>
</g>
<!-- [root] provider.aws (close)&#45;&gt;[root] aws_instance.app (orphan) -->
<g id="edge56" class="edge"><title>[root] provider.aws (close)&#45;&gt;[root] aws_instance.app (orphan)</title>
<path fill="none" stroke="black" d="M932.414,-521.659C762.973,-521.223 420.012,-514.19 122.35,-468.022"/>
<polygon fill="black" stroke="black" points="122.647,-464.525 112.226,-466.433 121.562,-471.441 122.647,-464.525"/>
</g>
<!-- [root] provider.aws (close)&#45;&gt;[root] aws_route.internet_access (orphan) -->
<g id="edge57" class="edge"><title>[root] provider.aws (close)&#45;&gt;[root] aws_route.internet_access (orphan)</title>
<path fill="none" stroke="black" d="M982.096,-506.666C941.488,-496.253 886.054,-482.04 841.367,-470.581"/>
<polygon fill="black" stroke="black" points="841.979,-467.125 831.423,-468.032 840.241,-473.906 841.979,-467.125"/>
</g>
<!-- [root] provider.aws (close)&#45;&gt;[root] aws_route.private_route (orphan) -->
<g id="edge58" class="edge"><title>[root] provider.aws (close)&#45;&gt;[root] aws_route.private_route (orphan)</title>
<path fill="none" stroke="black" d="M1013.83,-504.411C1000.53,-495.286 983.833,-483.827 969.317,-473.865"/>
<polygon fill="black" stroke="black" points="971.29,-470.974 961.064,-468.201 967.329,-476.745 971.29,-470.974"/>
</g>
<!-- [root] provider.aws (close)&#45;&gt;[root] aws_route_table_association.pr_1_subnet_eu_west_1a_association (orphan) -->
<g id="edge59" class="edge"><title>[root] provider.aws (close)&#45;&gt;[root] aws_route_table_association.pr_1_subnet_eu_west_1a_association (orphan)</title>
<path fill="none" stroke="black" d="M948.878,-512.311C838.392,-501.54 647.248,-482.904 504.614,-468.999"/>
<polygon fill="black" stroke="black" points="504.723,-465.493 494.43,-468.006 504.044,-472.46 504.723,-465.493"/>
</g>
<!-- [root] provider.aws (close)&#45;&gt;[root] aws_route_table_association.pr_2_subnet_eu_west_1a_association (orphan) -->
<g id="edge60" class="edge"><title>[root] provider.aws (close)&#45;&gt;[root] aws_route_table_association.pr_2_subnet_eu_west_1a_association (orphan)</title>
<path fill="none" stroke="black" d="M1085.3,-505.811C1116.87,-495.674 1158.74,-482.23 1193.11,-471.194"/>
<polygon fill="black" stroke="black" points="1194.6,-474.391 1203.05,-468.002 1192.46,-467.726 1194.6,-474.391"/>
</g>
<!-- [root] provider.aws (close)&#45;&gt;[root] aws_route_table_association.public_subnet_eu_west_1a_association (orphan) -->
<g id="edge61" class="edge"><title>[root] provider.aws (close)&#45;&gt;[root] aws_route_table_association.public_subnet_eu_west_1a_association (orphan)</title>
<path fill="none" stroke="black" d="M1113.05,-509.33C1126.03,-507.449 1139.39,-505.598 1152,-504 1256.09,-490.805 1372.5,-478.465 1467.5,-469.017"/>
<polygon fill="black" stroke="black" points="1467.9,-472.495 1477.51,-468.025 1467.21,-465.529 1467.9,-472.495"/>
</g>
<!-- [root] provider.aws (close)&#45;&gt;[root] aws_s3_bucket.bucket -->
<g id="edge62" class="edge"><title>[root] provider.aws (close)&#45;&gt;[root] aws_s3_bucket.bucket</title>
<path fill="none" stroke="black" d="M1110.52,-508.865C1124.26,-506.94 1138.55,-505.194 1152,-504 1698.27,-455.519 1843.44,-533.357 2392.18,-467.937"/>
<polygon fill="black" stroke="black" points="2392.82,-471.384 2402.33,-466.715 2391.98,-464.435 2392.82,-471.384"/>
</g>
<!-- [root] root -->
<g id="node34" class="node"><title>[root] root</title>
<ellipse fill="none" stroke="black" cx="1196" cy="-594" rx="47.3916" ry="18"/>
<text text-anchor="middle" x="1196" y="-590.3" font-family="Times,serif" font-size="14.00">[root] root</text>
</g>
<!-- [root] root&#45;&gt;[root] meta.count&#45;boundary (count boundary fixup) -->
<g id="edge64" class="edge"><title>[root] root&#45;&gt;[root] meta.count&#45;boundary (count boundary fixup)</title>
<path fill="none" stroke="black" d="M1225.72,-579.834C1248.57,-569.71 1280.58,-555.53 1306.9,-543.866"/>
<polygon fill="black" stroke="black" points="1308.59,-546.946 1316.32,-539.695 1305.76,-540.546 1308.59,-546.946"/>
</g>
<!-- [root] root&#45;&gt;[root] provider.aws (close) -->
<g id="edge65" class="edge"><title>[root] root&#45;&gt;[root] provider.aws (close)</title>
<path fill="none" stroke="black" d="M1166.28,-579.834C1142.85,-569.453 1109.79,-554.807 1083.1,-542.983"/>
<polygon fill="black" stroke="black" points="1084.52,-539.781 1073.96,-538.93 1081.68,-546.181 1084.52,-539.781"/>
</g>
</g>
</svg>
