<?xml version="1.0" encoding="UTF-8" standalone="no"?>
<!DOCTYPE svg PUBLIC "-//W3C//DTD SVG 1.1//EN"
 "http://www.w3.org/Graphics/SVG/1.1/DTD/svg11.dtd">
<!-- Generated by graphviz version 2.38.0 (20140413.2041)
 -->
<!-- Title: %3 Pages: 1 -->
<svg width="2806pt" height="404pt"
 viewBox="0.00 0.00 2806.16 404.00" xmlns="http://www.w3.org/2000/svg" xmlns:xlink="http://www.w3.org/1999/xlink">
<g id="graph0" class="graph" transform="scale(1 1) rotate(0) translate(4 400)">
<title>%3</title>
<polygon fill="white" stroke="none" points="-4,4 -4,-400 2802.16,-400 2802.16,4 -4,4"/>
<!-- [root] aws_cloudwatch_metric_alarm.dlq1_not_empty -->
<g id="node1" class="node"><title>[root] aws_cloudwatch_metric_alarm.dlq1_not_empty</title>
<polygon fill="none" stroke="black" points="713.163,-252 433.163,-252 433.163,-216 713.163,-216 713.163,-252"/>
<text text-anchor="middle" x="573.163" y="-230.3" font-family="Times,serif" font-size="14.00">aws_cloudwatch_metric_alarm.dlq1_not_empty</text>
</g>
<!-- [root] aws_sqs_queue.terraform_queue -->
<g id="node16" class="node"><title>[root] aws_sqs_queue.terraform_queue</title>
<polygon fill="none" stroke="black" points="670.663,-180 475.663,-180 475.663,-144 670.663,-144 670.663,-180"/>
<text text-anchor="middle" x="573.163" y="-158.3" font-family="Times,serif" font-size="14.00">aws_sqs_queue.terraform_queue</text>
</g>
<!-- [root] aws_cloudwatch_metric_alarm.dlq1_not_empty&#45;&gt;[root] aws_sqs_queue.terraform_queue -->
<g id="edge1" class="edge"><title>[root] aws_cloudwatch_metric_alarm.dlq1_not_empty&#45;&gt;[root] aws_sqs_queue.terraform_queue</title>
<path fill="none" stroke="black" d="M573.163,-215.697C573.163,-207.983 573.163,-198.712 573.163,-190.112"/>
<polygon fill="black" stroke="black" points="576.663,-190.104 573.163,-180.104 569.663,-190.104 576.663,-190.104"/>
</g>
<!-- [root] aws_iam_policy.example_lambda -->
<g id="node2" class="node"><title>[root] aws_iam_policy.example_lambda</title>
<polygon fill="none" stroke="black" points="1405.66,-180 1202.66,-180 1202.66,-144 1405.66,-144 1405.66,-180"/>
<text text-anchor="middle" x="1304.16" y="-158.3" font-family="Times,serif" font-size="14.00">aws_iam_policy.example_lambda</text>
</g>
<!-- [root] data.aws_iam_policy_document.example_lambda -->
<g id="node22" class="node"><title>[root] data.aws_iam_policy_document.example_lambda</title>
<polygon fill="none" stroke="black" points="1449.16,-108 1159.16,-108 1159.16,-72 1449.16,-72 1449.16,-108"/>
<text text-anchor="middle" x="1304.16" y="-86.3" font-family="Times,serif" font-size="14.00">data.aws_iam_policy_document.example_lambda</text>
</g>
<!-- [root] aws_iam_policy.example_lambda&#45;&gt;[root] data.aws_iam_policy_document.example_lambda -->
<g id="edge2" class="edge"><title>[root] aws_iam_policy.example_lambda&#45;&gt;[root] data.aws_iam_policy_document.example_lambda</title>
<path fill="none" stroke="black" d="M1304.16,-143.697C1304.16,-135.983 1304.16,-126.712 1304.16,-118.112"/>
<polygon fill="black" stroke="black" points="1307.66,-118.104 1304.16,-108.104 1300.66,-118.104 1307.66,-118.104"/>
</g>
<!-- [root] aws_iam_policy.example_lambda1 -->
<g id="node3" class="node"><title>[root] aws_iam_policy.example_lambda1</title>
<polygon fill="none" stroke="black" points="2260.16,-180 2050.16,-180 2050.16,-144 2260.16,-144 2260.16,-180"/>
<text text-anchor="middle" x="2155.16" y="-158.3" font-family="Times,serif" font-size="14.00">aws_iam_policy.example_lambda1</text>
</g>
<!-- [root] data.aws_iam_policy_document.example_lambda1 -->
<g id="node23" class="node"><title>[root] data.aws_iam_policy_document.example_lambda1</title>
<polygon fill="none" stroke="black" points="2188.66,-108 1891.66,-108 1891.66,-72 2188.66,-72 2188.66,-108"/>
<text text-anchor="middle" x="2040.16" y="-86.3" font-family="Times,serif" font-size="14.00">data.aws_iam_policy_document.example_lambda1</text>
</g>
<!-- [root] aws_iam_policy.example_lambda1&#45;&gt;[root] data.aws_iam_policy_document.example_lambda1 -->
<g id="edge3" class="edge"><title>[root] aws_iam_policy.example_lambda1&#45;&gt;[root] data.aws_iam_policy_document.example_lambda1</title>
<path fill="none" stroke="black" d="M2127.03,-143.876C2111.99,-134.724 2093.3,-123.342 2077.1,-113.485"/>
<polygon fill="black" stroke="black" points="2078.76,-110.4 2068.4,-108.19 2075.13,-116.379 2078.76,-110.4"/>
</g>
<!-- [root] aws_iam_role.example_lambda -->
<g id="node4" class="node"><title>[root] aws_iam_role.example_lambda</title>
<polygon fill="none" stroke="black" points="1658.66,-108 1467.66,-108 1467.66,-72 1658.66,-72 1658.66,-108"/>
<text text-anchor="middle" x="1563.16" y="-86.3" font-family="Times,serif" font-size="14.00">aws_iam_role.example_lambda</text>
</g>
<!-- [root] provider.aws -->
<g id="node26" class="node"><title>[root] provider.aws</title>
<polygon fill="none" stroke="black" points="1563.16,-36 1483.23,-18 1563.16,-3.55271e-15 1643.1,-18 1563.16,-36"/>
<text text-anchor="middle" x="1563.16" y="-14.3" font-family="Times,serif" font-size="14.00">provider.aws</text>
</g>
<!-- [root] aws_iam_role.example_lambda&#45;&gt;[root] provider.aws -->
<g id="edge4" class="edge"><title>[root] aws_iam_role.example_lambda&#45;&gt;[root] provider.aws</title>
<path fill="none" stroke="black" d="M1563.16,-71.6966C1563.16,-63.9827 1563.16,-54.7125 1563.16,-46.1124"/>
<polygon fill="black" stroke="black" points="1566.66,-46.1043 1563.16,-36.1043 1559.66,-46.1044 1566.66,-46.1043"/>
</g>
<!-- [root] aws_iam_role.example_lambda1 -->
<g id="node5" class="node"><title>[root] aws_iam_role.example_lambda1</title>
<polygon fill="none" stroke="black" points="1873.66,-108 1676.66,-108 1676.66,-72 1873.66,-72 1873.66,-108"/>
<text text-anchor="middle" x="1775.16" y="-86.3" font-family="Times,serif" font-size="14.00">aws_iam_role.example_lambda1</text>
</g>
<!-- [root] aws_iam_role.example_lambda1&#45;&gt;[root] provider.aws -->
<g id="edge5" class="edge"><title>[root] aws_iam_role.example_lambda1&#45;&gt;[root] provider.aws</title>
<path fill="none" stroke="black" d="M1723.57,-71.9656C1686.65,-59.7738 1637.64,-43.5918 1603.55,-32.3362"/>
<polygon fill="black" stroke="black" points="1604.51,-28.9676 1593.92,-29.1557 1602.32,-35.6146 1604.51,-28.9676"/>
</g>
<!-- [root] aws_iam_role_policy_attachment.example_lambda -->
<g id="node6" class="node"><title>[root] aws_iam_role_policy_attachment.example_lambda</title>
<polygon fill="none" stroke="black" points="1583.16,-252 1285.16,-252 1285.16,-216 1583.16,-216 1583.16,-252"/>
<text text-anchor="middle" x="1434.16" y="-230.3" font-family="Times,serif" font-size="14.00">aws_iam_role_policy_attachment.example_lambda</text>
</g>
<!-- [root] aws_iam_role_policy_attachment.example_lambda&#45;&gt;[root] aws_iam_policy.example_lambda -->
<g id="edge6" class="edge"><title>[root] aws_iam_role_policy_attachment.example_lambda&#45;&gt;[root] aws_iam_policy.example_lambda</title>
<path fill="none" stroke="black" d="M1402.36,-215.876C1385.05,-206.554 1363.44,-194.919 1344.91,-184.939"/>
<polygon fill="black" stroke="black" points="1346.55,-181.849 1336.09,-180.19 1343.23,-188.012 1346.55,-181.849"/>
</g>
<!-- [root] aws_iam_role_policy_attachment.example_lambda&#45;&gt;[root] aws_iam_role.example_lambda -->
<g id="edge7" class="edge"><title>[root] aws_iam_role_policy_attachment.example_lambda&#45;&gt;[root] aws_iam_role.example_lambda</title>
<path fill="none" stroke="black" d="M1442.62,-215.975C1452.55,-197.049 1470.34,-166.225 1491.16,-144 1501.58,-132.881 1514.6,-122.496 1526.69,-113.917"/>
<polygon fill="black" stroke="black" points="1529.02,-116.558 1535.28,-108.005 1525.05,-110.792 1529.02,-116.558"/>
</g>
<!-- [root] aws_iam_role_policy_attachment.example_lambda1 -->
<g id="node7" class="node"><title>[root] aws_iam_role_policy_attachment.example_lambda1</title>
<polygon fill="none" stroke="black" points="2270.66,-252 1965.66,-252 1965.66,-216 2270.66,-216 2270.66,-252"/>
<text text-anchor="middle" x="2118.16" y="-230.3" font-family="Times,serif" font-size="14.00">aws_iam_role_policy_attachment.example_lambda1</text>
</g>
<!-- [root] aws_iam_role_policy_attachment.example_lambda1&#45;&gt;[root] aws_iam_policy.example_lambda1 -->
<g id="edge8" class="edge"><title>[root] aws_iam_role_policy_attachment.example_lambda1&#45;&gt;[root] aws_iam_policy.example_lambda1</title>
<path fill="none" stroke="black" d="M2127.31,-215.697C2131.57,-207.644 2136.72,-197.894 2141.43,-188.982"/>
<polygon fill="black" stroke="black" points="2144.54,-190.581 2146.12,-180.104 2138.35,-187.31 2144.54,-190.581"/>
</g>
<!-- [root] aws_iam_role_policy_attachment.example_lambda1&#45;&gt;[root] aws_iam_role.example_lambda1 -->
<g id="edge9" class="edge"><title>[root] aws_iam_role_policy_attachment.example_lambda1&#45;&gt;[root] aws_iam_role.example_lambda1</title>
<path fill="none" stroke="black" d="M2091.48,-215.99C2076.34,-206.01 2057.26,-192.865 2041.16,-180 2022.73,-165.275 2023,-155.047 2002.16,-144 1980.5,-132.519 1928.5,-120.034 1879.73,-110.068"/>
<polygon fill="black" stroke="black" points="1880.2,-106.592 1869.71,-108.045 1878.82,-113.454 1880.2,-106.592"/>
</g>
<!-- [root] aws_lambda_event_source_mapping.event_source_mapping -->
<g id="node8" class="node"><title>[root] aws_lambda_event_source_mapping.event_source_mapping</title>
<polygon fill="none" stroke="black" points="1947.66,-252 1600.66,-252 1600.66,-216 1947.66,-216 1947.66,-252"/>
<text text-anchor="middle" x="1774.16" y="-230.3" font-family="Times,serif" font-size="14.00">aws_lambda_event_source_mapping.event_source_mapping</text>
</g>
<!-- [root] aws_lambda_function.example_lambda -->
<g id="node10" class="node"><title>[root] aws_lambda_function.example_lambda</title>
<polygon fill="none" stroke="black" points="1734.16,-180 1500.16,-180 1500.16,-144 1734.16,-144 1734.16,-180"/>
<text text-anchor="middle" x="1617.16" y="-158.3" font-family="Times,serif" font-size="14.00">aws_lambda_function.example_lambda</text>
</g>
<!-- [root] aws_lambda_event_source_mapping.event_source_mapping&#45;&gt;[root] aws_lambda_function.example_lambda -->
<g id="edge10" class="edge"><title>[root] aws_lambda_event_source_mapping.event_source_mapping&#45;&gt;[root] aws_lambda_function.example_lambda</title>
<path fill="none" stroke="black" d="M1735.76,-215.876C1714.29,-206.307 1687.36,-194.3 1664.59,-184.148"/>
<polygon fill="black" stroke="black" points="1666,-180.944 1655.44,-180.068 1663.15,-187.337 1666,-180.944"/>
</g>
<!-- [root] aws_sqs_queue.user_updates_queue -->
<g id="node18" class="node"><title>[root] aws_sqs_queue.user_updates_queue</title>
<polygon fill="none" stroke="black" points="932.163,-108 718.163,-108 718.163,-72 932.163,-72 932.163,-108"/>
<text text-anchor="middle" x="825.163" y="-86.3" font-family="Times,serif" font-size="14.00">aws_sqs_queue.user_updates_queue</text>
</g>
<!-- [root] aws_lambda_event_source_mapping.event_source_mapping&#45;&gt;[root] aws_sqs_queue.user_updates_queue -->
<g id="edge11" class="edge"><title>[root] aws_lambda_event_source_mapping.event_source_mapping&#45;&gt;[root] aws_sqs_queue.user_updates_queue</title>
<path fill="none" stroke="black" d="M1645.67,-215.971C1596.64,-207.652 1540.65,-195.92 1491.16,-180 1455.2,-168.431 1450.69,-153.632 1414.16,-144 1216.3,-91.8288 1158.68,-129.274 955.163,-108 950.96,-107.561 946.684,-107.096 942.366,-106.611"/>
<polygon fill="black" stroke="black" points="942.567,-103.111 932.233,-105.448 941.768,-110.066 942.567,-103.111"/>
</g>
<!-- [root] aws_lambda_event_source_mapping.event_source_mapping1 -->
<g id="node9" class="node"><title>[root] aws_lambda_event_source_mapping.event_source_mapping1</title>
<polygon fill="none" stroke="black" points="1267.16,-252 913.163,-252 913.163,-216 1267.16,-216 1267.16,-252"/>
<text text-anchor="middle" x="1090.16" y="-230.3" font-family="Times,serif" font-size="14.00">aws_lambda_event_source_mapping.event_source_mapping1</text>
</g>
<!-- [root] aws_lambda_function.example_lambda1 -->
<g id="node11" class="node"><title>[root] aws_lambda_function.example_lambda1</title>
<polygon fill="none" stroke="black" points="1993.66,-180 1752.66,-180 1752.66,-144 1993.66,-144 1993.66,-180"/>
<text text-anchor="middle" x="1873.16" y="-158.3" font-family="Times,serif" font-size="14.00">aws_lambda_function.example_lambda1</text>
</g>
<!-- [root] aws_lambda_event_source_mapping.event_source_mapping1&#45;&gt;[root] aws_lambda_function.example_lambda1 -->
<g id="edge12" class="edge"><title>[root] aws_lambda_event_source_mapping.event_source_mapping1&#45;&gt;[root] aws_lambda_function.example_lambda1</title>
<path fill="none" stroke="black" d="M1267.37,-216.746C1270.32,-216.494 1273.25,-216.245 1276.16,-216 1480.36,-198.799 1534.43,-201.416 1742.41,-180.045"/>
<polygon fill="black" stroke="black" points="1742.85,-183.518 1752.44,-179.009 1742.13,-176.556 1742.85,-183.518"/>
</g>
<!-- [root] aws_lambda_event_source_mapping.event_source_mapping1&#45;&gt;[root] aws_sqs_queue.terraform_queue -->
<g id="edge13" class="edge"><title>[root] aws_lambda_event_source_mapping.event_source_mapping1&#45;&gt;[root] aws_sqs_queue.terraform_queue</title>
<path fill="none" stroke="black" d="M956.21,-215.972C877.757,-205.852 776.788,-192.575 687.163,-180 685.073,-179.707 682.961,-179.409 680.834,-179.107"/>
<polygon fill="black" stroke="black" points="681.176,-175.621 670.782,-177.67 680.186,-182.55 681.176,-175.621"/>
</g>
<!-- [root] aws_lambda_function.example_lambda&#45;&gt;[root] aws_iam_role.example_lambda -->
<g id="edge14" class="edge"><title>[root] aws_lambda_function.example_lambda&#45;&gt;[root] aws_iam_role.example_lambda</title>
<path fill="none" stroke="black" d="M1603.81,-143.697C1597.41,-135.389 1589.6,-125.277 1582.56,-116.141"/>
<polygon fill="black" stroke="black" points="1585.24,-113.884 1576.36,-108.104 1579.69,-118.16 1585.24,-113.884"/>
</g>
<!-- [root] data.archive_file.example_lambda -->
<g id="node20" class="node"><title>[root] data.archive_file.example_lambda</title>
<polygon fill="none" stroke="black" points="2568.66,-108 2363.66,-108 2363.66,-72 2568.66,-72 2568.66,-108"/>
<text text-anchor="middle" x="2466.16" y="-86.3" font-family="Times,serif" font-size="14.00">data.archive_file.example_lambda</text>
</g>
<!-- [root] aws_lambda_function.example_lambda&#45;&gt;[root] data.archive_file.example_lambda -->
<g id="edge15" class="edge"><title>[root] aws_lambda_function.example_lambda&#45;&gt;[root] data.archive_file.example_lambda</title>
<path fill="none" stroke="black" d="M1734.16,-144.909C1737.19,-144.591 1740.2,-144.287 1743.16,-144 2011.06,-118.086 2082.47,-136.201 2353.27,-108.145"/>
<polygon fill="black" stroke="black" points="2353.82,-111.607 2363.4,-107.084 2353.09,-104.645 2353.82,-111.607"/>
</g>
<!-- [root] aws_lambda_function.example_lambda1&#45;&gt;[root] aws_iam_role.example_lambda1 -->
<g id="edge16" class="edge"><title>[root] aws_lambda_function.example_lambda1&#45;&gt;[root] aws_iam_role.example_lambda1</title>
<path fill="none" stroke="black" d="M1849.19,-143.876C1836.61,-134.893 1821.03,-123.763 1807.41,-114.034"/>
<polygon fill="black" stroke="black" points="1809.4,-111.154 1799.23,-108.19 1805.33,-116.85 1809.4,-111.154"/>
</g>
<!-- [root] data.archive_file.example_lambda1 -->
<g id="node21" class="node"><title>[root] data.archive_file.example_lambda1</title>
<polygon fill="none" stroke="black" points="2798.16,-108 2586.16,-108 2586.16,-72 2798.16,-72 2798.16,-108"/>
<text text-anchor="middle" x="2692.16" y="-86.3" font-family="Times,serif" font-size="14.00">data.archive_file.example_lambda1</text>
</g>
<!-- [root] aws_lambda_function.example_lambda1&#45;&gt;[root] data.archive_file.example_lambda1 -->
<g id="edge17" class="edge"><title>[root] aws_lambda_function.example_lambda1&#45;&gt;[root] data.archive_file.example_lambda1</title>
<path fill="none" stroke="black" d="M1993.79,-148.296C2009.71,-146.765 2025.83,-145.29 2041.16,-144 2276.26,-124.23 2338.64,-133.401 2576.03,-108.187"/>
<polygon fill="black" stroke="black" points="2576.44,-111.664 2586.01,-107.119 2575.69,-104.704 2576.44,-111.664"/>
</g>
<!-- [root] aws_s3_bucket.bucket -->
<g id="node12" class="node"><title>[root] aws_s3_bucket.bucket</title>
<polygon fill="none" stroke="black" points="2345.66,-108 2206.66,-108 2206.66,-72 2345.66,-72 2345.66,-108"/>
<text text-anchor="middle" x="2276.16" y="-86.3" font-family="Times,serif" font-size="14.00">aws_s3_bucket.bucket</text>
</g>
<!-- [root] aws_s3_bucket.bucket&#45;&gt;[root] provider.aws -->
<g id="edge18" class="edge"><title>[root] aws_s3_bucket.bucket&#45;&gt;[root] provider.aws</title>
<path fill="none" stroke="black" d="M2206.51,-73.3437C2203.69,-72.8621 2200.9,-72.4113 2198.16,-72 1996.72,-41.7745 1756.54,-27.6101 1637.57,-22.0394"/>
<polygon fill="black" stroke="black" points="1637.63,-18.5385 1627.48,-21.574 1637.31,-25.5311 1637.63,-18.5385"/>
</g>
<!-- [root] aws_s3_bucket_notification.bucket_notification -->
<g id="node13" class="node"><title>[root] aws_s3_bucket_notification.bucket_notification</title>
<polygon fill="none" stroke="black" points="2565.66,-252 2288.66,-252 2288.66,-216 2565.66,-216 2565.66,-252"/>
<text text-anchor="middle" x="2427.16" y="-230.3" font-family="Times,serif" font-size="14.00">aws_s3_bucket_notification.bucket_notification</text>
</g>
<!-- [root] aws_sns_topic.topic -->
<g id="node14" class="node"><title>[root] aws_sns_topic.topic</title>
<polygon fill="none" stroke="black" points="2431.16,-180 2305.16,-180 2305.16,-144 2431.16,-144 2431.16,-180"/>
<text text-anchor="middle" x="2368.16" y="-158.3" font-family="Times,serif" font-size="14.00">aws_sns_topic.topic</text>
</g>
<!-- [root] aws_s3_bucket_notification.bucket_notification&#45;&gt;[root] aws_sns_topic.topic -->
<g id="edge19" class="edge"><title>[root] aws_s3_bucket_notification.bucket_notification&#45;&gt;[root] aws_sns_topic.topic</title>
<path fill="none" stroke="black" d="M2412.58,-215.697C2405.5,-207.305 2396.88,-197.07 2389.12,-187.861"/>
<polygon fill="black" stroke="black" points="2391.7,-185.495 2382.58,-180.104 2386.35,-190.006 2391.7,-185.495"/>
</g>
<!-- [root] aws_sns_topic.topic&#45;&gt;[root] aws_s3_bucket.bucket -->
<g id="edge20" class="edge"><title>[root] aws_sns_topic.topic&#45;&gt;[root] aws_s3_bucket.bucket</title>
<path fill="none" stroke="black" d="M2345.42,-143.697C2333.72,-134.796 2319.3,-123.823 2306.65,-114.199"/>
<polygon fill="black" stroke="black" points="2308.72,-111.374 2298.64,-108.104 2304.48,-116.945 2308.72,-111.374"/>
</g>
<!-- [root] aws_sns_topic.user_updates -->
<g id="node15" class="node"><title>[root] aws_sns_topic.user_updates</title>
<polygon fill="none" stroke="black" points="1134.16,-108 964.163,-108 964.163,-72 1134.16,-72 1134.16,-108"/>
<text text-anchor="middle" x="1049.16" y="-86.3" font-family="Times,serif" font-size="14.00">aws_sns_topic.user_updates</text>
</g>
<!-- [root] aws_sns_topic.user_updates&#45;&gt;[root] provider.aws -->
<g id="edge21" class="edge"><title>[root] aws_sns_topic.user_updates&#45;&gt;[root] provider.aws</title>
<path fill="none" stroke="black" d="M1134.26,-74.4319C1139.64,-73.5871 1144.97,-72.7693 1150.16,-72 1275.48,-53.4194 1422.77,-35.4399 1503.22,-25.9465"/>
<polygon fill="black" stroke="black" points="1503.65,-29.4206 1513.17,-24.7756 1502.83,-22.4686 1503.65,-29.4206"/>
</g>
<!-- [root] aws_sqs_queue.terraform_queue&#45;&gt;[root] aws_sqs_queue.user_updates_queue -->
<g id="edge22" class="edge"><title>[root] aws_sqs_queue.terraform_queue&#45;&gt;[root] aws_sqs_queue.user_updates_queue</title>
<path fill="none" stroke="black" d="M634.486,-143.966C670.462,-133.972 716.088,-121.298 753.689,-110.854"/>
<polygon fill="black" stroke="black" points="754.865,-114.16 763.564,-108.111 752.992,-107.415 754.865,-114.16"/>
</g>
<!-- [root] aws_sqs_queue.terraform_queue1 -->
<g id="node17" class="node"><title>[root] aws_sqs_queue.terraform_queue1</title>
<polygon fill="none" stroke="black" points="415.163,-252 213.163,-252 213.163,-216 415.163,-216 415.163,-252"/>
<text text-anchor="middle" x="314.163" y="-230.3" font-family="Times,serif" font-size="14.00">aws_sqs_queue.terraform_queue1</text>
</g>
<!-- [root] aws_sqs_queue.terraform_queue1&#45;&gt;[root] aws_sqs_queue.terraform_queue -->
<g id="edge23" class="edge"><title>[root] aws_sqs_queue.terraform_queue1&#45;&gt;[root] aws_sqs_queue.terraform_queue</title>
<path fill="none" stroke="black" d="M377.19,-215.966C414.322,-205.93 461.458,-193.19 500.196,-182.721"/>
<polygon fill="black" stroke="black" points="501.112,-186.099 509.853,-180.111 499.286,-179.341 501.112,-186.099"/>
</g>
<!-- [root] aws_sqs_queue.user_updates_queue&#45;&gt;[root] provider.aws -->
<g id="edge24" class="edge"><title>[root] aws_sqs_queue.user_updates_queue&#45;&gt;[root] provider.aws</title>
<path fill="none" stroke="black" d="M932.241,-74.6261C939.993,-73.6994 947.695,-72.8133 955.163,-72 1151.28,-50.6392 1383.73,-32.3148 1495.93,-23.9091"/>
<polygon fill="black" stroke="black" points="1496.37,-27.3861 1506.08,-23.1511 1495.85,-20.4055 1496.37,-27.3861"/>
</g>
<!-- [root] aws_sqs_queue_policy.test -->
<g id="node19" class="node"><title>[root] aws_sqs_queue_policy.test</title>
<polygon fill="none" stroke="black" points="895.163,-252 731.163,-252 731.163,-216 895.163,-216 895.163,-252"/>
<text text-anchor="middle" x="813.163" y="-230.3" font-family="Times,serif" font-size="14.00">aws_sqs_queue_policy.test</text>
</g>
<!-- [root] data.aws_iam_policy_document.sqs_upload -->
<g id="node24" class="node"><title>[root] data.aws_iam_policy_document.sqs_upload</title>
<polygon fill="none" stroke="black" points="953.663,-180 696.663,-180 696.663,-144 953.663,-144 953.663,-180"/>
<text text-anchor="middle" x="825.163" y="-158.3" font-family="Times,serif" font-size="14.00">data.aws_iam_policy_document.sqs_upload</text>
</g>
<!-- [root] aws_sqs_queue_policy.test&#45;&gt;[root] data.aws_iam_policy_document.sqs_upload -->
<g id="edge25" class="edge"><title>[root] aws_sqs_queue_policy.test&#45;&gt;[root] data.aws_iam_policy_document.sqs_upload</title>
<path fill="none" stroke="black" d="M816.129,-215.697C817.451,-207.983 819.04,-198.712 820.515,-190.112"/>
<polygon fill="black" stroke="black" points="823.99,-190.552 822.23,-180.104 817.091,-189.369 823.99,-190.552"/>
</g>
<!-- [root] provider.archive -->
<g id="node25" class="node"><title>[root] provider.archive</title>
<polygon fill="none" stroke="black" points="2579.16,-36 2481.8,-18 2579.16,-3.55271e-15 2676.52,-18 2579.16,-36"/>
<text text-anchor="middle" x="2579.16" y="-14.3" font-family="Times,serif" font-size="14.00">provider.archive</text>
</g>
<!-- [root] data.archive_file.example_lambda&#45;&gt;[root] provider.archive -->
<g id="edge26" class="edge"><title>[root] data.archive_file.example_lambda&#45;&gt;[root] provider.archive</title>
<path fill="none" stroke="black" d="M2493.81,-71.8761C2510.61,-61.4669 2532.07,-48.1743 2549.26,-37.521"/>
<polygon fill="black" stroke="black" points="2551.16,-40.4614 2557.82,-32.2198 2547.48,-34.5106 2551.16,-40.4614"/>
</g>
<!-- [root] data.archive_file.example_lambda1&#45;&gt;[root] provider.archive -->
<g id="edge27" class="edge"><title>[root] data.archive_file.example_lambda1&#45;&gt;[root] provider.archive</title>
<path fill="none" stroke="black" d="M2664.52,-71.8761C2647.72,-61.4669 2626.26,-48.1743 2609.06,-37.521"/>
<polygon fill="black" stroke="black" points="2610.85,-34.5106 2600.5,-32.2198 2607.16,-40.4614 2610.85,-34.5106"/>
</g>
<!-- [root] data.aws_iam_policy_document.example_lambda&#45;&gt;[root] provider.aws -->
<g id="edge28" class="edge"><title>[root] data.aws_iam_policy_document.example_lambda&#45;&gt;[root] provider.aws</title>
<path fill="none" stroke="black" d="M1367.19,-71.9656C1414.08,-59.2916 1476.93,-42.3054 1518.67,-31.0243"/>
<polygon fill="black" stroke="black" points="1519.81,-34.3438 1528.55,-28.3558 1517.98,-27.5862 1519.81,-34.3438"/>
</g>
<!-- [root] data.aws_iam_policy_document.example_lambda1&#45;&gt;[root] provider.aws -->
<g id="edge29" class="edge"><title>[root] data.aws_iam_policy_document.example_lambda1&#45;&gt;[root] provider.aws</title>
<path fill="none" stroke="black" d="M1924.09,-71.9656C1827.29,-57.7613 1693.59,-38.1407 1619.08,-27.2052"/>
<polygon fill="black" stroke="black" points="1619.37,-23.7104 1608.96,-25.7213 1618.35,-30.6362 1619.37,-23.7104"/>
</g>
<!-- [root] data.aws_iam_policy_document.sqs_upload&#45;&gt;[root] aws_sns_topic.user_updates -->
<g id="edge30" class="edge"><title>[root] data.aws_iam_policy_document.sqs_upload&#45;&gt;[root] aws_sns_topic.user_updates</title>
<path fill="none" stroke="black" d="M879.673,-143.966C911.379,-134.057 951.518,-121.514 984.775,-111.121"/>
<polygon fill="black" stroke="black" points="985.907,-114.434 994.408,-108.111 983.819,-107.753 985.907,-114.434"/>
</g>
<!-- [root] data.aws_iam_policy_document.sqs_upload&#45;&gt;[root] aws_sqs_queue.user_updates_queue -->
<g id="edge31" class="edge"><title>[root] data.aws_iam_policy_document.sqs_upload&#45;&gt;[root] aws_sqs_queue.user_updates_queue</title>
<path fill="none" stroke="black" d="M825.163,-143.697C825.163,-135.983 825.163,-126.712 825.163,-118.112"/>
<polygon fill="black" stroke="black" points="828.663,-118.104 825.163,-108.104 821.663,-118.104 828.663,-118.104"/>
</g>
<!-- [root] meta.count&#45;boundary (count boundary fixup) -->
<g id="node27" class="node"><title>[root] meta.count&#45;boundary (count boundary fixup)</title>
<ellipse fill="none" stroke="black" cx="1090.16" cy="-306" rx="193.066" ry="18"/>
<text text-anchor="middle" x="1090.16" y="-302.3" font-family="Times,serif" font-size="14.00">[root] meta.count&#45;boundary (count boundary fixup)</text>
</g>
<!-- [root] meta.count&#45;boundary (count boundary fixup)&#45;&gt;[root] aws_cloudwatch_metric_alarm.dlq1_not_empty -->
<g id="edge32" class="edge"><title>[root] meta.count&#45;boundary (count boundary fixup)&#45;&gt;[root] aws_cloudwatch_metric_alarm.dlq1_not_empty</title>
<path fill="none" stroke="black" d="M985.54,-290.834C905.929,-280.055 795.702,-265.131 709.238,-253.424"/>
<polygon fill="black" stroke="black" points="709.462,-249.923 699.082,-252.049 708.522,-256.859 709.462,-249.923"/>
</g>
<!-- [root] meta.count&#45;boundary (count boundary fixup)&#45;&gt;[root] aws_iam_role_policy_attachment.example_lambda -->
<g id="edge33" class="edge"><title>[root] meta.count&#45;boundary (count boundary fixup)&#45;&gt;[root] aws_iam_role_policy_attachment.example_lambda</title>
<path fill="none" stroke="black" d="M1166.51,-289.465C1217.84,-279.018 1285.85,-265.18 1340.47,-254.066"/>
<polygon fill="black" stroke="black" points="1341.4,-257.448 1350.5,-252.024 1340,-250.588 1341.4,-257.448"/>
</g>
<!-- [root] meta.count&#45;boundary (count boundary fixup)&#45;&gt;[root] aws_iam_role_policy_attachment.example_lambda1 -->
<g id="edge34" class="edge"><title>[root] meta.count&#45;boundary (count boundary fixup)&#45;&gt;[root] aws_iam_role_policy_attachment.example_lambda1</title>
<path fill="none" stroke="black" d="M1229.85,-293.529C1255.24,-291.58 1281.49,-289.654 1306.16,-288 1591.46,-268.875 1666.02,-274.957 1955.18,-252.053"/>
<polygon fill="black" stroke="black" points="1955.86,-255.509 1965.55,-251.226 1955.31,-248.532 1955.86,-255.509"/>
</g>
<!-- [root] meta.count&#45;boundary (count boundary fixup)&#45;&gt;[root] aws_lambda_event_source_mapping.event_source_mapping -->
<g id="edge35" class="edge"><title>[root] meta.count&#45;boundary (count boundary fixup)&#45;&gt;[root] aws_lambda_event_source_mapping.event_source_mapping</title>
<path fill="none" stroke="black" d="M1214.82,-292.242C1322.01,-281.272 1477.84,-265.325 1597.81,-253.047"/>
<polygon fill="black" stroke="black" points="1598.25,-256.521 1607.85,-252.021 1597.54,-249.557 1598.25,-256.521"/>
</g>
<!-- [root] meta.count&#45;boundary (count boundary fixup)&#45;&gt;[root] aws_lambda_event_source_mapping.event_source_mapping1 -->
<g id="edge36" class="edge"><title>[root] meta.count&#45;boundary (count boundary fixup)&#45;&gt;[root] aws_lambda_event_source_mapping.event_source_mapping1</title>
<path fill="none" stroke="black" d="M1090.16,-287.697C1090.16,-279.983 1090.16,-270.712 1090.16,-262.112"/>
<polygon fill="black" stroke="black" points="1093.66,-262.104 1090.16,-252.104 1086.66,-262.104 1093.66,-262.104"/>
</g>
<!-- [root] meta.count&#45;boundary (count boundary fixup)&#45;&gt;[root] aws_s3_bucket_notification.bucket_notification -->
<g id="edge37" class="edge"><title>[root] meta.count&#45;boundary (count boundary fixup)&#45;&gt;[root] aws_s3_bucket_notification.bucket_notification</title>
<path fill="none" stroke="black" d="M1227.51,-293.328C1253.62,-291.354 1280.72,-289.471 1306.16,-288 1735.25,-263.196 1846.5,-284.568 2278.05,-252.128"/>
<polygon fill="black" stroke="black" points="2278.6,-255.596 2288.31,-251.351 2278.07,-248.616 2278.6,-255.596"/>
</g>
<!-- [root] meta.count&#45;boundary (count boundary fixup)&#45;&gt;[root] aws_sqs_queue.terraform_queue1 -->
<g id="edge38" class="edge"><title>[root] meta.count&#45;boundary (count boundary fixup)&#45;&gt;[root] aws_sqs_queue.terraform_queue1</title>
<path fill="none" stroke="black" d="M931.727,-295.699C799.094,-287.136 604.634,-272.78 425.559,-252.116"/>
<polygon fill="black" stroke="black" points="425.757,-248.615 415.419,-250.937 424.948,-255.568 425.757,-248.615"/>
</g>
<!-- [root] meta.count&#45;boundary (count boundary fixup)&#45;&gt;[root] aws_sqs_queue_policy.test -->
<g id="edge39" class="edge"><title>[root] meta.count&#45;boundary (count boundary fixup)&#45;&gt;[root] aws_sqs_queue_policy.test</title>
<path fill="none" stroke="black" d="M1026.61,-288.941C986.159,-278.718 933.497,-265.409 890.603,-254.57"/>
<polygon fill="black" stroke="black" points="891.321,-251.141 880.768,-252.084 889.606,-257.928 891.321,-251.141"/>
</g>
<!-- [root] output.sqs_url -->
<g id="node28" class="node"><title>[root] output.sqs_url</title>
<ellipse fill="none" stroke="black" cx="183.163" cy="-162" rx="83.3857" ry="18"/>
<text text-anchor="middle" x="183.163" y="-158.3" font-family="Times,serif" font-size="14.00">[root] output.sqs_url</text>
</g>
<!-- [root] meta.count&#45;boundary (count boundary fixup)&#45;&gt;[root] output.sqs_url -->
<g id="edge40" class="edge"><title>[root] meta.count&#45;boundary (count boundary fixup)&#45;&gt;[root] output.sqs_url</title>
<path fill="none" stroke="black" d="M900.952,-302.405C599.367,-297.329 40.33,-283.684 10.1626,-252 -26.3155,-213.688 46.5951,-188.942 108.7,-175.503"/>
<polygon fill="black" stroke="black" points="109.484,-178.914 118.556,-173.442 108.052,-172.063 109.484,-178.914"/>
</g>
<!-- [root] output.sqs_url1 -->
<g id="node29" class="node"><title>[root] output.sqs_url1</title>
<ellipse fill="none" stroke="black" cx="107.163" cy="-234" rx="87.9851" ry="18"/>
<text text-anchor="middle" x="107.163" y="-230.3" font-family="Times,serif" font-size="14.00">[root] output.sqs_url1</text>
</g>
<!-- [root] meta.count&#45;boundary (count boundary fixup)&#45;&gt;[root] output.sqs_url1 -->
<g id="edge41" class="edge"><title>[root] meta.count&#45;boundary (count boundary fixup)&#45;&gt;[root] output.sqs_url1</title>
<path fill="none" stroke="black" d="M907.215,-300.13C727.687,-293.921 446.361,-280.374 204.163,-252 195.924,-251.035 187.325,-249.825 178.797,-248.498"/>
<polygon fill="black" stroke="black" points="179.274,-245.03 168.844,-246.893 178.16,-251.94 179.274,-245.03"/>
</g>
<!-- [root] output.sqs_url&#45;&gt;[root] aws_sqs_queue.user_updates_queue -->
<g id="edge42" class="edge"><title>[root] output.sqs_url&#45;&gt;[root] aws_sqs_queue.user_updates_queue</title>
<path fill="none" stroke="black" d="M255.56,-153.106C365.583,-141.11 576.003,-118.167 707.997,-103.775"/>
<polygon fill="black" stroke="black" points="708.589,-107.231 718.15,-102.668 707.83,-100.273 708.589,-107.231"/>
</g>
<!-- [root] output.sqs_url1&#45;&gt;[root] aws_sqs_queue.terraform_queue -->
<g id="edge43" class="edge"><title>[root] output.sqs_url1&#45;&gt;[root] aws_sqs_queue.terraform_queue</title>
<path fill="none" stroke="black" d="M170.772,-221.563C181.892,-219.646 193.357,-217.722 204.163,-216 291.91,-202.013 391.67,-187.784 465.321,-177.597"/>
<polygon fill="black" stroke="black" points="466.109,-181.021 475.536,-176.186 465.151,-174.087 466.109,-181.021"/>
</g>
<!-- [root] provider.archive (close) -->
<g id="node30" class="node"><title>[root] provider.archive (close)</title>
<ellipse fill="none" stroke="black" cx="2594.16" cy="-162" rx="117.779" ry="18"/>
<text text-anchor="middle" x="2594.16" y="-158.3" font-family="Times,serif" font-size="14.00">[root] provider.archive (close)</text>
</g>
<!-- [root] provider.archive (close)&#45;&gt;[root] data.archive_file.example_lambda -->
<g id="edge44" class="edge"><title>[root] provider.archive (close)&#45;&gt;[root] data.archive_file.example_lambda</title>
<path fill="none" stroke="black" d="M2564.15,-144.588C2546.88,-135.142 2524.95,-123.152 2506.22,-112.909"/>
<polygon fill="black" stroke="black" points="2507.77,-109.767 2497.32,-108.04 2504.42,-115.909 2507.77,-109.767"/>
</g>
<!-- [root] provider.archive (close)&#45;&gt;[root] data.archive_file.example_lambda1 -->
<g id="edge45" class="edge"><title>[root] provider.archive (close)&#45;&gt;[root] data.archive_file.example_lambda1</title>
<path fill="none" stroke="black" d="M2617.89,-144.055C2630.55,-135.008 2646.32,-123.744 2660.07,-113.926"/>
<polygon fill="black" stroke="black" points="2662.22,-116.692 2668.32,-108.032 2658.15,-110.996 2662.22,-116.692"/>
</g>
<!-- [root] provider.aws (close) -->
<g id="node31" class="node"><title>[root] provider.aws (close)</title>
<ellipse fill="none" stroke="black" cx="1420.16" cy="-306" rx="105.082" ry="18"/>
<text text-anchor="middle" x="1420.16" y="-302.3" font-family="Times,serif" font-size="14.00">[root] provider.aws (close)</text>
</g>
<!-- [root] provider.aws (close)&#45;&gt;[root] aws_cloudwatch_metric_alarm.dlq1_not_empty -->
<g id="edge46" class="edge"><title>[root] provider.aws (close)&#45;&gt;[root] aws_cloudwatch_metric_alarm.dlq1_not_empty</title>
<path fill="none" stroke="black" d="M1342.42,-293.802C1325.86,-291.661 1308.45,-289.594 1292.16,-288 1042.86,-263.602 976.745,-274.108 723.763,-252.113"/>
<polygon fill="black" stroke="black" points="723.79,-248.602 713.522,-251.214 723.178,-255.576 723.79,-248.602"/>
</g>
<!-- [root] provider.aws (close)&#45;&gt;[root] aws_iam_role_policy_attachment.example_lambda -->
<g id="edge47" class="edge"><title>[root] provider.aws (close)&#45;&gt;[root] aws_iam_role_policy_attachment.example_lambda</title>
<path fill="none" stroke="black" d="M1423.62,-287.697C1425.17,-279.983 1427.02,-270.712 1428.74,-262.112"/>
<polygon fill="black" stroke="black" points="1432.21,-262.597 1430.74,-252.104 1425.35,-261.224 1432.21,-262.597"/>
</g>
<!-- [root] provider.aws (close)&#45;&gt;[root] aws_iam_role_policy_attachment.example_lambda1 -->
<g id="edge48" class="edge"><title>[root] provider.aws (close)&#45;&gt;[root] aws_iam_role_policy_attachment.example_lambda1</title>
<path fill="none" stroke="black" d="M1509.33,-296.348C1613.53,-286.2 1791.46,-268.755 1955.27,-252.088"/>
<polygon fill="black" stroke="black" points="1955.94,-255.537 1965.54,-251.042 1955.23,-248.573 1955.94,-255.537"/>
</g>
<!-- [root] provider.aws (close)&#45;&gt;[root] aws_lambda_event_source_mapping.event_source_mapping -->
<g id="edge49" class="edge"><title>[root] provider.aws (close)&#45;&gt;[root] aws_lambda_event_source_mapping.event_source_mapping</title>
<path fill="none" stroke="black" d="M1486.33,-291.916C1540.26,-281.251 1617.17,-266.045 1677.91,-254.032"/>
<polygon fill="black" stroke="black" points="1678.77,-257.43 1687.9,-252.057 1677.41,-250.563 1678.77,-257.43"/>
</g>
<!-- [root] provider.aws (close)&#45;&gt;[root] aws_lambda_event_source_mapping.event_source_mapping1 -->
<g id="edge50" class="edge"><title>[root] provider.aws (close)&#45;&gt;[root] aws_lambda_event_source_mapping.event_source_mapping1</title>
<path fill="none" stroke="black" d="M1356.93,-291.586C1306.87,-280.969 1236.33,-266.004 1180.35,-254.131"/>
<polygon fill="black" stroke="black" points="1180.94,-250.678 1170.43,-252.027 1179.49,-257.526 1180.94,-250.678"/>
</g>
<!-- [root] provider.aws (close)&#45;&gt;[root] aws_s3_bucket_notification.bucket_notification -->
<g id="edge51" class="edge"><title>[root] provider.aws (close)&#45;&gt;[root] aws_s3_bucket_notification.bucket_notification</title>
<path fill="none" stroke="black" d="M1520.59,-300.559C1679.26,-293.154 1997.91,-276.708 2277.93,-252.173"/>
<polygon fill="black" stroke="black" points="2278.64,-255.624 2288.3,-251.26 2278.03,-248.651 2278.64,-255.624"/>
</g>
<!-- [root] provider.aws (close)&#45;&gt;[root] aws_sqs_queue.terraform_queue1 -->
<g id="edge52" class="edge"><title>[root] provider.aws (close)&#45;&gt;[root] aws_sqs_queue.terraform_queue1</title>
<path fill="none" stroke="black" d="M1343.46,-293.663C1326.6,-291.491 1308.8,-289.447 1292.16,-288 910.792,-254.835 810.156,-288.951 425.415,-252.052"/>
<polygon fill="black" stroke="black" points="425.695,-248.563 415.404,-251.082 425.02,-255.53 425.695,-248.563"/>
</g>
<!-- [root] provider.aws (close)&#45;&gt;[root] aws_sqs_queue_policy.test -->
<g id="edge53" class="edge"><title>[root] provider.aws (close)&#45;&gt;[root] aws_sqs_queue_policy.test</title>
<path fill="none" stroke="black" d="M1341.36,-294.036C1325.11,-291.915 1308.09,-289.796 1292.16,-288 1123.35,-268.965 1077.42,-275.657 905.598,-252.128"/>
<polygon fill="black" stroke="black" points="905.832,-248.627 895.447,-250.723 904.873,-255.561 905.832,-248.627"/>
</g>
<!-- [root] root -->
<g id="node32" class="node"><title>[root] root</title>
<ellipse fill="none" stroke="black" cx="1420.16" cy="-378" rx="47.3916" ry="18"/>
<text text-anchor="middle" x="1420.16" y="-374.3" font-family="Times,serif" font-size="14.00">[root] root</text>
</g>
<!-- [root] root&#45;&gt;[root] meta.count&#45;boundary (count boundary fixup) -->
<g id="edge54" class="edge"><title>[root] root&#45;&gt;[root] meta.count&#45;boundary (count boundary fixup)</title>
<path fill="none" stroke="black" d="M1379.7,-368.417C1328.7,-357.6 1239.77,-338.735 1173.88,-324.759"/>
<polygon fill="black" stroke="black" points="1174.43,-321.298 1163.93,-322.647 1172.98,-328.146 1174.43,-321.298"/>
</g>
<!-- [root] root&#45;&gt;[root] provider.archive (close) -->
<g id="edge55" class="edge"><title>[root] root&#45;&gt;[root] provider.archive (close)</title>
<path fill="none" stroke="black" d="M1467.24,-375.118C1673.57,-366.446 2491.5,-327.5 2575.16,-252 2592.07,-236.747 2595.96,-210.466 2596.13,-190.405"/>
<polygon fill="black" stroke="black" points="2599.63,-190.216 2595.92,-180.292 2592.63,-190.363 2599.63,-190.216"/>
</g>
<!-- [root] root&#45;&gt;[root] provider.aws (close) -->
<g id="edge56" class="edge"><title>[root] root&#45;&gt;[root] provider.aws (close)</title>
<path fill="none" stroke="black" d="M1420.16,-359.697C1420.16,-351.983 1420.16,-342.712 1420.16,-334.112"/>
<polygon fill="black" stroke="black" points="1423.66,-334.104 1420.16,-324.104 1416.66,-334.104 1423.66,-334.104"/>
</g>
</g>
</svg>
